  0
SECTION
  2
HEADER
  9
$ACADVER
  1
AC1032
  9
$ACADMAINTVER
 90
4
  9
$DWGCODEPAGE
  3
ANSI_1252
  9
$LASTSAVEDBY
  1
ezdxf
  9
$REQUIREDVERSIONS
160
0
  9
$INSBASE
 10
0.0
 20
0.0
 30
0.0
  9
$EXTMIN
 10
1e+20
 20
1e+20
 30
1e+20
  9
$EXTMAX
 10
-1e+20
 20
-1e+20
 30
-1e+20
  9
$LIMMIN
 10
0.0
 20
0.0
  9
$LIMMAX
 10
420.0
 20
297.0
  9
$ORTHOMODE
 70
0
  9
$REGENMODE
 70
1
  9
$FILLMODE
 70
1
  9
$QTEXTMODE
 70
0
  9
$MIRRTEXT
 70
1
  9
$LTSCALE
 40
1.0
  9
$ATTMODE
 70
1
  9
$TEXTSIZE
 40
2.5
  9
$TRACEWID
 40
1.0
  9
$TEXTSTYLE
  7
OpenSans
  9
$CLAYER
  8
0
  9
$CELTYPE
  6
ByLayer
  9
$CECOLOR
 62
256
  9
$CELTSCALE
 40
1.0
  9
$DISPSILH
 70
0
  9
$DIMSCALE
 40
1.0
  9
$DIMASZ
 40
0.175
  9
$DIMEXO
 40
0.125
  9
$DIMDLI
 40
3.75
  9
$DIMRND
 40
0.0
  9
$DIMDLE
 40
0.0
  9
$DIMEXE
 40
0.375
  9
$DIMTP
 40
0.0
  9
$DIMTM
 40
0.0
  9
$DIMTXT
 40
0.25
  9
$DIMCEN
 40
2.5
  9
$DIMTSZ
 40
0.0
  9
$DIMTOL
 70
0
  9
$DIMLIM
 70
0
  9
$DIMTIH
 70
0
  9
$DIMTOH
 70
0
  9
$DIMSE1
 70
0
  9
$DIMSE2
 70
0
  9
$DIMTAD
 70
1
  9
$DIMZIN
 70
12
  9
$DIMBLK
  1
ARCHTICK
  9
$DIMASO
 70
1
  9
$DIMSHO
 70
1
  9
$DIMPOST
  1

  9
$DIMAPOST
  1

  9
$DIMALT
 70
0
  9
$DIMALTD
 70
3
  9
$DIMALTF
 40
0.03937007874
  9
$DIMLFAC
 40
100.0
  9
$DIMTOFL
 70
1
  9
$DIMTVP
 40
0.0
  9
$DIMTIX
 70
0
  9
$DIMSOXD
 70
0
  9
$DIMSAH
 70
0
  9
$DIMBLK1
  1

  9
$DIMBLK2
  1

  9
$DIMSTYLE
  2
EZDXF
  9
$DIMCLRD
 70
0
  9
$DIMCLRE
 70
0
  9
$DIMCLRT
 70
0
  9
$DIMTFAC
 40
0.5
  9
$DIMGAP
 40
0.1
  9
$DIMJUST
 70
0
  9
$DIMSD1
 70
0
  9
$DIMSD2
 70
0
  9
$DIMTOLJ
 70
0
  9
$DIMTZIN
 70
8
  9
$DIMALTZ
 70
0
  9
$DIMALTTZ
 70
0
  9
$DIMUPT
 70
1
  9
$DIMDEC
 70
2
  9
$DIMTDEC
 70
2
  9
$DIMALTU
 70
2
  9
$DIMALTTD
 70
3
  9
$DIMTXSTY
  7
OpenSansCondensed-Light
  9
$DIMAUNIT
 70
0
  9
$DIMADEC
 70
2
  9
$DIMALTRND
 40
0.0
  9
$DIMAZIN
 70
3
  9
$DIMDSEP
 70
46
  9
$DIMATFIT
 70
3
  9
$DIMFRAC
 70
0
  9
$DIMLDRBLK
  1

  9
$DIMLUNIT
 70
2
  9
$DIMLWD
 70
-2
  9
$DIMLWE
 70
-2
  9
$DIMTMOVE
 70
2
  9
$DIMFXL
 40
1.0
  9
$DIMFXLON
 70
0
  9
$DIMJOGANG
 40
0.785398163397
  9
$DIMTFILL
 70
0
  9
$DIMTFILLCLR
 70
0
  9
$DIMARCSYM
 70
0
  9
$DIMLTYPE
  6

  9
$DIMLTEX1
  6

  9
$DIMLTEX2
  6

  9
$DIMTXTDIRECTION
 70
0
  9
$LUNITS
 70
2
  9
$LUPREC
 70
4
  9
$SKETCHINC
 40
1.0
  9
$FILLETRAD
 40
10.0
  9
$AUNITS
 70
0
  9
$AUPREC
 70
2
  9
$MENU
  1
.
  9
$ELEVATION
 40
0.0
  9
$PELEVATION
 40
0.0
  9
$THICKNESS
 40
0.0
  9
$LIMCHECK
 70
0
  9
$CHAMFERA
 40
0.0
  9
$CHAMFERB
 40
0.0
  9
$CHAMFERC
 40
0.0
  9
$CHAMFERD
 40
0.0
  9
$SKPOLY
 70
0
  9
$TDCREATE
 40
2461167.580474537
  9
$TDUCREATE
 40
2458532.153996898
  9
$TDUPDATE
 40
2461167.580474537
  9
$TDUUPDATE
 40
2458532.1544311
  9
$TDINDWG
 40
0.0
  9
$TDUSRTIMER
 40
0.0
  9
$USRTIMER
 70
1
  9
$ANGBASE
 50
0.0
  9
$ANGDIR
 70
0
  9
$PDMODE
 70
0
  9
$PDSIZE
 40
0.0
  9
$PLINEWID
 40
0.0
  9
$SPLFRAME
 70
0
  9
$SPLINETYPE
 70
6
  9
$SPLINESEGS
 70
8
  9
$HANDSEED
  5
21B
  9
$SURFTAB1
 70
6
  9
$SURFTAB2
 70
6
  9
$SURFTYPE
 70
6
  9
$SURFU
 70
6
  9
$SURFV
 70
6
  9
$UCSBASE
  2

  9
$UCSNAME
  2

  9
$UCSORG
 10
0.0
 20
0.0
 30
0.0
  9
$UCSXDIR
 10
1.0
 20
0.0
 30
0.0
  9
$UCSYDIR
 10
0.0
 20
1.0
 30
0.0
  9
$UCSORTHOREF
  2

  9
$UCSORTHOVIEW
 70
0
  9
$UCSORGTOP
 10
0.0
 20
0.0
 30
0.0
  9
$UCSORGBOTTOM
 10
0.0
 20
0.0
 30
0.0
  9
$UCSORGLEFT
 10
0.0
 20
0.0
 30
0.0
  9
$UCSORGRIGHT
 10
0.0
 20
0.0
 30
0.0
  9
$UCSORGFRONT
 10
0.0
 20
0.0
 30
0.0
  9
$UCSORGBACK
 10
0.0
 20
0.0
 30
0.0
  9
$PUCSBASE
  2

  9
$PUCSNAME
  2

  9
$PUCSORG
 10
0.0
 20
0.0
 30
0.0
  9
$PUCSXDIR
 10
1.0
 20
0.0
 30
0.0
  9
$PUCSYDIR
 10
0.0
 20
1.0
 30
0.0
  9
$PUCSORTHOREF
  2

  9
$PUCSORTHOVIEW
 70
0
  9
$PUCSORGTOP
 10
0.0
 20
0.0
 30
0.0
  9
$PUCSORGBOTTOM
 10
0.0
 20
0.0
 30
0.0
  9
$PUCSORGLEFT
 10
0.0
 20
0.0
 30
0.0
  9
$PUCSORGRIGHT
 10
0.0
 20
0.0
 30
0.0
  9
$PUCSORGFRONT
 10
0.0
 20
0.0
 30
0.0
  9
$PUCSORGBACK
 10
0.0
 20
0.0
 30
0.0
  9
$USERI1
 70
0
  9
$USERI2
 70
0
  9
$USERI3
 70
0
  9
$USERI4
 70
0
  9
$USERI5
 70
0
  9
$USERR1
 40
0.0
  9
$USERR2
 40
0.0
  9
$USERR3
 40
0.0
  9
$USERR4
 40
0.0
  9
$USERR5
 40
0.0
  9
$WORLDVIEW
 70
1
  9
$SHADEDGE
 70
3
  9
$SHADEDIF
 70
70
  9
$TILEMODE
 70
1
  9
$MAXACTVP
 70
64
  9
$PINSBASE
 10
0.0
 20
0.0
 30
0.0
  9
$PLIMCHECK
 70
0
  9
$PEXTMIN
 10
1e+20
 20
1e+20
 30
1e+20
  9
$PEXTMAX
 10
-1e+20
 20
-1e+20
 30
-1e+20
  9
$PLIMMIN
 10
0.0
 20
0.0
  9
$PLIMMAX
 10
420.0
 20
297.0
  9
$UNITMODE
 70
0
  9
$VISRETAIN
 70
1
  9
$PLINEGEN
 70
0
  9
$PSLTSCALE
 70
1
  9
$TREEDEPTH
 70
3020
  9
$CMLSTYLE
  2
Standard
  9
$CMLJUST
 70
0
  9
$CMLSCALE
 40
20.0
  9
$PROXYGRAPHICS
 70
1
  9
$MEASUREMENT
 70
1
  9
$CELWEIGHT
370
-1
  9
$ENDCAPS
280
0
  9
$JOINSTYLE
280
0
  9
$LWDISPLAY
290
0
  9
$INSUNITS
 70
6
  9
$HYPERLINKBASE
  1

  9
$STYLESHEET
  1

  9
$XEDIT
290
1
  9
$CEPSNTYPE
380
0
  9
$PSTYLEMODE
290
1
  9
$FINGERPRINTGUID
  2
{3FBFF06F-B5D0-45FD-9309-7B598556E45E}
  9
$VERSIONGUID
  2
{E658C705-A0A6-4AFE-B3AC-C7102C0ED72A}
  9
$EXTNAMES
290
1
  9
$PSVPSCALE
 40
0.0
  9
$OLESTARTUP
290
0
  9
$SORTENTS
280
127
  9
$INDEXCTL
280
0
  9
$HIDETEXT
280
1
  9
$XCLIPFRAME
280
1
  9
$HALOGAP
280
0
  9
$OBSCOLOR
 70
257
  9
$OBSLTYPE
280
0
  9
$INTERSECTIONDISPLAY
280
0
  9
$INTERSECTIONCOLOR
 70
257
  9
$DIMASSOC
280
2
  9
$PROJECTNAME
  1

  9
$CAMERADISPLAY
290
0
  9
$LENSLENGTH
 40
50.0
  9
$CAMERAHEIGHT
 40
0.0
  9
$STEPSPERSEC
 40
24.0
  9
$STEPSIZE
 40
100.0
  9
$3DDWFPREC
 40
2.0
  9
$PSOLWIDTH
 40
0.005
  9
$PSOLHEIGHT
 40
0.08
  9
$LOFTANG1
 40
1.570796326795
  9
$LOFTANG2
 40
1.570796326795
  9
$LOFTMAG1
 40
0.0
  9
$LOFTMAG2
 40
0.0
  9
$LOFTPARAM
 70
7
  9
$LOFTNORMALS
280
1
  9
$LATITUDE
 40
37.795
  9
$LONGITUDE
 40
-122.394
  9
$NORTHDIRECTION
 40
0.0
  9
$TIMEZONE
 70
-8000
  9
$LIGHTGLYPHDISPLAY
280
1
  9
$TILEMODELIGHTSYNCH
280
1
  9
$CMATERIAL
347
20
  9
$SOLIDHIST
280
0
  9
$SHOWHIST
280
1
  9
$DWFFRAME
280
2
  9
$DGNFRAME
280
2
  9
$REALWORLDSCALE
290
1
  9
$INTERFERECOLOR
 62
256
  9
$CSHADOW
280
0
  9
$SHADOWPLANELOCATION
 40
0.0
  0
ENDSEC
  0
SECTION
  2
CLASSES
  0
CLASS
  1
ACDBDICTIONARYWDFLT
  2
AcDbDictionaryWithDefault
  3
ObjectDBX Classes
 90
0
 91
0
280
0
281
0
  0
CLASS
  1
SUN
  2
AcDbSun
  3
SCENEOE
 90
1153
 91
0
280
0
281
0
  0
CLASS
  1
VISUALSTYLE
  2
AcDbVisualStyle
  3
ObjectDBX Classes
 90
4095
 91
0
280
0
281
0
  0
CLASS
  1
MATERIAL
  2
AcDbMaterial
  3
ObjectDBX Classes
 90
1153
 91
0
280
0
281
0
  0
CLASS
  1
SCALE
  2
AcDbScale
  3
ObjectDBX Classes
 90
1153
 91
0
280
0
281
0
  0
CLASS
  1
TABLESTYLE
  2
AcDbTableStyle
  3
ObjectDBX Classes
 90
4095
 91
0
280
0
281
0
  0
CLASS
  1
MLEADERSTYLE
  2
AcDbMLeaderStyle
  3
ACDB_MLEADERSTYLE_CLASS
 90
4095
 91
0
280
0
281
0
  0
CLASS
  1
DICTIONARYVAR
  2
AcDbDictionaryVar
  3
ObjectDBX Classes
 90
0
 91
0
280
0
281
0
  0
CLASS
  1
CELLSTYLEMAP
  2
AcDbCellStyleMap
  3
ObjectDBX Classes
 90
1152
 91
0
280
0
281
0
  0
CLASS
  1
MENTALRAYRENDERSETTINGS
  2
AcDbMentalRayRenderSettings
  3
SCENEOE
 90
1024
 91
0
280
0
281
0
  0
CLASS
  1
ACDBDETAILVIEWSTYLE
  2
AcDbDetailViewStyle
  3
ObjectDBX Classes
 90
1025
 91
0
280
0
281
0
  0
CLASS
  1
ACDBSECTIONVIEWSTYLE
  2
AcDbSectionViewStyle
  3
ObjectDBX Classes
 90
1025
 91
0
280
0
281
0
  0
CLASS
  1
RASTERVARIABLES
  2
AcDbRasterVariables
  3
ISM
 90
0
 91
0
280
0
281
0
  0
CLASS
  1
ACDBPLACEHOLDER
  2
AcDbPlaceHolder
  3
ObjectDBX Classes
 90
0
 91
0
280
0
281
0
  0
CLASS
  1
LAYOUT
  2
AcDbLayout
  3
ObjectDBX Classes
 90
0
 91
0
280
0
281
0
  0
ENDSEC
  0
SECTION
  2
TABLES
  0
TABLE
  2
VPORT
  5
8
330
0
100
AcDbSymbolTable
 70
1
  0
VPORT
  5
23
330
8
100
AcDbSymbolTableRecord
100
AcDbViewportTableRecord
  2
*Active
 70
0
 10
0.0
 20
0.0
 11
1.0
 21
1.0
 12
0.0
 22
0.0
 13
0.0
 23
0.0
 14
0.5
 24
0.5
 15
0.5
 25
0.5
 16
0.0
 26
0.0
 36
1.0
 17
0.0
 27
0.0
 37
0.0
 40
1000.0
 41
1.34
 42
50.0
 43
0.0
 44
0.0
 50
0.0
 51
0.0
 71
0
 72
1000
 73
1
 74
3
 75
0
 76
0
 77
0
 78
0
281
0
 65
0
146
0.0
  0
ENDTAB
  0
TABLE
  2
LTYPE
  5
2
330
0
100
AcDbSymbolTable
 70
21
  0
LTYPE
  5
24
330
2
100
AcDbSymbolTableRecord
100
AcDbLinetypeTableRecord
  2
ByBlock
 70
0
  3

 72
65
 73
0
 40
0.0
  0
LTYPE
  5
25
330
2
100
AcDbSymbolTableRecord
100
AcDbLinetypeTableRecord
  2
ByLayer
 70
0
  3

 72
65
 73
0
 40
0.0
  0
LTYPE
  5
26
330
2
100
AcDbSymbolTableRecord
100
AcDbLinetypeTableRecord
  2
Continuous
 70
0
  3

 72
65
 73
0
 40
0.0
  0
LTYPE
  5
2F
330
2
100
AcDbSymbolTableRecord
100
AcDbLinetypeTableRecord
  2
CENTER
 70
0
  3
Center ____ _ ____ _ ____ _ ____ _ ____ _ ____
 72
65
 73
4
 40
5.08
 49
3.175
 74
0
 49
-0.635
 74
0
 49
0.635
 74
0
 49
-0.635
 74
0
  0
LTYPE
  5
30
330
2
100
AcDbSymbolTableRecord
100
AcDbLinetypeTableRecord
  2
CENTERX2
 70
0
  3
Center (2x) ________  __  ________  __  ________
 72
65
 73
4
 40
8.89
 49
6.35
 74
0
 49
-0.635
 74
0
 49
1.27
 74
0
 49
-0.635
 74
0
  0
LTYPE
  5
31
330
2
100
AcDbSymbolTableRecord
100
AcDbLinetypeTableRecord
  2
CENTER2
 70
0
  3
Center (.5x) ____ _ ____ _ ____ _ ____ _ ____
 72
65
 73
4
 40
2.54
 49
1.587
 74
0
 49
-0.318
 74
0
 49
0.318
 74
0
 49
-0.318
 74
0
  0
LTYPE
  5
32
330
2
100
AcDbSymbolTableRecord
100
AcDbLinetypeTableRecord
  2
DASHED
 70
0
  3
Dashed __ __ __ __ __ __ __ __ __ __ __ __ __ _
 72
65
 73
2
 40
1.524
 49
1.27
 74
0
 49
-0.254
 74
0
  0
LTYPE
  5
33
330
2
100
AcDbSymbolTableRecord
100
AcDbLinetypeTableRecord
  2
DASHEDX2
 70
0
  3
Dashed (2x) ____  ____  ____  ____  ____  ____
 72
65
 73
2
 40
3.048
 49
2.54
 74
0
 49
-0.508
 74
0
  0
LTYPE
  5
34
330
2
100
AcDbSymbolTableRecord
100
AcDbLinetypeTableRecord
  2
DASHED2
 70
0
  3
Dashed (.5x) _ _ _ _ _ _ _ _ _ _ _ _ _ _
 72
65
 73
2
 40
0.762
 49
0.635
 74
0
 49
-0.127
 74
0
  0
LTYPE
  5
35
330
2
100
AcDbSymbolTableRecord
100
AcDbLinetypeTableRecord
  2
PHANTOM
 70
0
  3
Phantom ______  __  __  ______  __  __  ______
 72
65
 73
6
 40
6.35
 49
3.175
 74
0
 49
-0.635
 74
0
 49
0.635
 74
0
 49
-0.635
 74
0
 49
0.635
 74
0
 49
-0.635
 74
0
  0
LTYPE
  5
36
330
2
100
AcDbSymbolTableRecord
100
AcDbLinetypeTableRecord
  2
PHANTOMX2
 70
0
  3
Phantom (2x)____________    ____    ____    ____________
 72
65
 73
6
 40
10.795
 49
6.35
 74
0
 49
-0.635
 74
0
 49
1.27
 74
0
 49
-0.635
 74
0
 49
1.27
 74
0
 49
-0.635
 74
0
  0
LTYPE
  5
37
330
2
100
AcDbSymbolTableRecord
100
AcDbLinetypeTableRecord
  2
PHANTOM2
 70
0
  3
Phantom (.5x) ___ _ _ ___ _ _ ___ _ _ ___ _ _ ___
 72
65
 73
6
 40
3.175
 49
1.587
 74
0
 49
-0.318
 74
0
 49
0.318
 74
0
 49
-0.318
 74
0
 49
0.318
 74
0
 49
-0.318
 74
0
  0
LTYPE
  5
38
330
2
100
AcDbSymbolTableRecord
100
AcDbLinetypeTableRecord
  2
DASHDOT
 70
0
  3
Dash dot __ . __ . __ . __ . __ . __ . __ . __
 72
65
 73
4
 40
3.556
 49
2.54
 74
0
 49
-0.508
 74
0
 49
0.0
 74
0
 49
-0.508
 74
0
  0
LTYPE
  5
39
330
2
100
AcDbSymbolTableRecord
100
AcDbLinetypeTableRecord
  2
DASHDOTX2
 70
0
  3
Dash dot (2x) ____  .  ____  .  ____  .  ____
 72
65
 73
4
 40
6.096
 49
5.08
 74
0
 49
-0.508
 74
0
 49
0.0
 74
0
 49
-0.508
 74
0
  0
LTYPE
  5
3A
330
2
100
AcDbSymbolTableRecord
100
AcDbLinetypeTableRecord
  2
DASHDOT2
 70
0
  3
Dash dot (.5x) _ . _ . _ . _ . _ . _ . _ . _
 72
65
 73
4
 40
1.778
 49
1.27
 74
0
 49
-0.254
 74
0
 49
0.0
 74
0
 49
-0.254
 74
0
  0
LTYPE
  5
3B
330
2
100
AcDbSymbolTableRecord
100
AcDbLinetypeTableRecord
  2
DOT
 70
0
  3
Dot .  .  .  .  .  .  .  .  .  .  .  .  .  .  .  .
 72
65
 73
2
 40
0.508
 49
0.0
 74
0
 49
-0.508
 74
0
  0
LTYPE
  5
3C
330
2
100
AcDbSymbolTableRecord
100
AcDbLinetypeTableRecord
  2
DOTX2
 70
0
  3
Dot (2x) .    .    .    .    .    .    .    . 
 72
65
 73
2
 40
1.016
 49
0.0
 74
0
 49
-1.016
 74
0
  0
LTYPE
  5
3D
330
2
100
AcDbSymbolTableRecord
100
AcDbLinetypeTableRecord
  2
DOT2
 70
0
  3
Dot (.5) . . . . . . . . . . . . . . . . . . . 
 72
65
 73
2
 40
0.254
 49
0.0
 74
0
 49
-0.254
 74
0
  0
LTYPE
  5
3E
330
2
100
AcDbSymbolTableRecord
100
AcDbLinetypeTableRecord
  2
DIVIDE
 70
0
  3
Divide __ . . __ . . __ . . __ . . __ . . __
 72
65
 73
6
 40
4.064
 49
2.54
 74
0
 49
-0.508
 74
0
 49
0.0
 74
0
 49
-0.508
 74
0
 49
0.0
 74
0
 49
-0.508
 74
0
  0
LTYPE
  5
3F
330
2
100
AcDbSymbolTableRecord
100
AcDbLinetypeTableRecord
  2
DIVIDEX2
 70
0
  3
Divide (2x) ____  . .  ____  . .  ____  . .  ____
 72
65
 73
6
 40
6.604
 49
5.08
 74
0
 49
-0.508
 74
0
 49
0.0
 74
0
 49
-0.508
 74
0
 49
0.0
 74
0
 49
-0.508
 74
0
  0
LTYPE
  5
40
330
2
100
AcDbSymbolTableRecord
100
AcDbLinetypeTableRecord
  2
DIVIDE2
 70
0
  3
Divide(.5x) _ . _ . _ . _ . _ . _ . _ . _
 72
65
 73
6
 40
2.032
 49
1.27
 74
0
 49
-0.254
 74
0
 49
0.0
 74
0
 49
-0.254
 74
0
 49
0.0
 74
0
 49
-0.254
 74
0
  0
ENDTAB
  0
TABLE
  2
LAYER
  5
1
330
0
100
AcDbSymbolTable
 70
22
  0
LAYER
  5
27
330
1
100
AcDbSymbolTableRecord
100
AcDbLayerTableRecord
  2
0
 70
0
 62
7
  6
Continuous
370
-3
390
13
347
21
  0
LAYER
  5
28
330
1
100
AcDbSymbolTableRecord
100
AcDbLayerTableRecord
  2
Defpoints
 70
0
 62
7
  6
Continuous
290
0
370
-3
390
13
347
21
  0
LAYER
  5
8A
330
1
100
AcDbSymbolTableRecord
100
AcDbLayerTableRecord
  2
A-WALL
 70
0
 62
7
  6
Continuous
370
50
390
13
347
21
  0
LAYER
  5
8B
330
1
100
AcDbSymbolTableRecord
100
AcDbLayerTableRecord
  2
A-WALL-INT
 70
0
 62
8
  6
Continuous
370
25
390
13
347
21
  0
LAYER
  5
8C
330
1
100
AcDbSymbolTableRecord
100
AcDbLayerTableRecord
  2
A-DOOR
 70
0
 62
30
  6
Continuous
370
18
390
13
347
21
  0
LAYER
  5
8D
330
1
100
AcDbSymbolTableRecord
100
AcDbLayerTableRecord
  2
A-GLAZ
 70
0
 62
4
  6
Continuous
370
18
390
13
347
21
  0
LAYER
  5
8E
330
1
100
AcDbSymbolTableRecord
100
AcDbLayerTableRecord
  2
A-TEXT
 70
0
 62
7
  6
Continuous
370
0
390
13
347
21
  0
LAYER
  5
8F
330
1
100
AcDbSymbolTableRecord
100
AcDbLayerTableRecord
  2
A-HATCH
 70
0
 62
8
  6
Continuous
370
0
390
13
347
21
  0
LAYER
  5
90
330
1
100
AcDbSymbolTableRecord
100
AcDbLayerTableRecord
  2
P-FIXT
 70
0
 62
5
  6
Continuous
370
25
390
13
347
21
  0
LAYER
  5
91
330
1
100
AcDbSymbolTableRecord
100
AcDbLayerTableRecord
  2
P-PIPE-EF
 70
0
 62
5
  6
Continuous
370
18
390
13
347
21
  0
LAYER
  5
92
330
1
100
AcDbSymbolTableRecord
100
AcDbLayerTableRecord
  2
P-PIPE-EC
 70
0
 62
1
  6
Continuous
370
18
390
13
347
21
  0
LAYER
  5
93
330
1
100
AcDbSymbolTableRecord
100
AcDbLayerTableRecord
  2
P-PIPE-EU
 70
0
 62
3
  6
Continuous
370
18
390
13
347
21
  0
LAYER
  5
94
330
1
100
AcDbSymbolTableRecord
100
AcDbLayerTableRecord
  2
M-EQUIP
 70
0
 62
2
  6
Continuous
370
25
390
13
347
21
  0
LAYER
  5
95
330
1
100
AcDbSymbolTableRecord
100
AcDbLayerTableRecord
  2
M-DUCT
 70
0
 62
2
  6
DASHED
370
18
390
13
347
21
  0
LAYER
  5
96
330
1
100
AcDbSymbolTableRecord
100
AcDbLayerTableRecord
  2
E-POWR
 70
0
 62
6
  6
Continuous
370
18
390
13
347
21
  0
LAYER
  5
97
330
1
100
AcDbSymbolTableRecord
100
AcDbLayerTableRecord
  2
E-LITE
 70
0
 62
6
  6
Continuous
370
13
390
13
347
21
  0
LAYER
  5
98
330
1
100
AcDbSymbolTableRecord
100
AcDbLayerTableRecord
  2
E-LCCR
 70
0
 62
4
  6
Continuous
370
13
390
13
347
21
  0
LAYER
  5
99
330
1
100
AcDbSymbolTableRecord
100
AcDbLayerTableRecord
  2
F-SPKL
 70
0
 62
1
  6
Continuous
370
25
390
13
347
21
  0
LAYER
  5
9A
330
1
100
AcDbSymbolTableRecord
100
AcDbLayerTableRecord
  2
F-DETECT
 70
0
 62
1
  6
Continuous
370
13
390
13
347
21
  0
LAYER
  5
9B
330
1
100
AcDbSymbolTableRecord
100
AcDbLayerTableRecord
  2
S-GRID
 70
0
 62
8
  6
CENTER
370
9
390
13
347
21
  0
LAYER
  5
9C
330
1
100
AcDbSymbolTableRecord
100
AcDbLayerTableRecord
  2
S-DIM
 70
0
 62
7
  6
Continuous
370
13
390
13
347
21
  0
LAYER
  5
9D
330
1
100
AcDbSymbolTableRecord
100
AcDbLayerTableRecord
  2
G-CART
 70
0
 62
7
  6
Continuous
370
35
390
13
347
21
  0
ENDTAB
  0
TABLE
  2
STYLE
  5
5
330
0
100
AcDbSymbolTable
 70
26
  0
STYLE
  5
29
330
5
100
AcDbSymbolTableRecord
100
AcDbTextStyleTableRecord
  2
Standard
 70
0
 40
0.0
 41
1.0
 50
0.0
 71
0
 42
2.5
  3
txt
  4

  0
STYLE
  5
41
330
5
100
AcDbSymbolTableRecord
100
AcDbTextStyleTableRecord
  2
OpenSans-Light
 70
0
 40
0.0
 41
1.0
 50
0.0
 71
0
 42
2.5
  3
OpenSans-Light.ttf
  4

  0
STYLE
  5
42
330
5
100
AcDbSymbolTableRecord
100
AcDbTextStyleTableRecord
  2
OpenSans-Light-Italic
 70
0
 40
0.0
 41
1.0
 50
0.0
 71
0
 42
2.5
  3
OpenSans-LightItalic.ttf
  4

  0
STYLE
  5
43
330
5
100
AcDbSymbolTableRecord
100
AcDbTextStyleTableRecord
  2
OpenSans
 70
0
 40
0.0
 41
1.0
 50
0.0
 71
0
 42
2.5
  3
OpenSans-Regular.ttf
  4

  0
STYLE
  5
44
330
5
100
AcDbSymbolTableRecord
100
AcDbTextStyleTableRecord
  2
OpenSans-Italic
 70
0
 40
0.0
 41
1.0
 50
0.0
 71
0
 42
2.5
  3
OpenSans-Italic.ttf
  4

  0
STYLE
  5
45
330
5
100
AcDbSymbolTableRecord
100
AcDbTextStyleTableRecord
  2
OpenSans-SemiBold
 70
0
 40
0.0
 41
1.0
 50
0.0
 71
0
 42
2.5
  3
OpenSans-SemiBold.ttf
  4

  0
STYLE
  5
46
330
5
100
AcDbSymbolTableRecord
100
AcDbTextStyleTableRecord
  2
OpenSans-SemiBoldItalic
 70
0
 40
0.0
 41
1.0
 50
0.0
 71
0
 42
2.5
  3
OpenSans-SemiBoldItalic.ttf
  4

  0
STYLE
  5
47
330
5
100
AcDbSymbolTableRecord
100
AcDbTextStyleTableRecord
  2
OpenSans-Bold
 70
0
 40
0.0
 41
1.0
 50
0.0
 71
0
 42
2.5
  3
OpenSans-Bold.ttf
  4

  0
STYLE
  5
48
330
5
100
AcDbSymbolTableRecord
100
AcDbTextStyleTableRecord
  2
OpenSans-BoldItalic
 70
0
 40
0.0
 41
1.0
 50
0.0
 71
0
 42
2.5
  3
OpenSans-BoldItalic.ttf
  4

  0
STYLE
  5
49
330
5
100
AcDbSymbolTableRecord
100
AcDbTextStyleTableRecord
  2
OpenSans-ExtraBold
 70
0
 40
0.0
 41
1.0
 50
0.0
 71
0
 42
2.5
  3
OpenSans-ExtraBold.ttf
  4

  0
STYLE
  5
4A
330
5
100
AcDbSymbolTableRecord
100
AcDbTextStyleTableRecord
  2
OpenSans-ExtraBoldItalic
 70
0
 40
0.0
 41
1.0
 50
0.0
 71
0
 42
2.5
  3
OpenSans-ExtraBoldItalic.ttf
  4

  0
STYLE
  5
4B
330
5
100
AcDbSymbolTableRecord
100
AcDbTextStyleTableRecord
  2
OpenSansCondensed-Bold
 70
0
 40
0.0
 41
1.0
 50
0.0
 71
0
 42
2.5
  3
OpenSansCondensed-Bold.ttf
  4

  0
STYLE
  5
4C
330
5
100
AcDbSymbolTableRecord
100
AcDbTextStyleTableRecord
  2
OpenSansCondensed-Light
 70
0
 40
0.0
 41
1.0
 50
0.0
 71
0
 42
2.5
  3
OpenSansCondensed-Light.ttf
  4

  0
STYLE
  5
4D
330
5
100
AcDbSymbolTableRecord
100
AcDbTextStyleTableRecord
  2
OpenSansCondensed-Italic
 70
0
 40
0.0
 41
1.0
 50
0.0
 71
0
 42
2.5
  3
OpenSansCondensed-LightItalic.ttf
  4

  0
STYLE
  5
4E
330
5
100
AcDbSymbolTableRecord
100
AcDbTextStyleTableRecord
  2
LiberationSans
 70
0
 40
0.0
 41
1.0
 50
0.0
 71
0
 42
2.5
  3
LiberationSans-Regular.ttf
  4

  0
STYLE
  5
4F
330
5
100
AcDbSymbolTableRecord
100
AcDbTextStyleTableRecord
  2
LiberationSans-Bold
 70
0
 40
0.0
 41
1.0
 50
0.0
 71
0
 42
2.5
  3
LiberationSans-Bold.ttf
  4

  0
STYLE
  5
50
330
5
100
AcDbSymbolTableRecord
100
AcDbTextStyleTableRecord
  2
LiberationSans-BoldItalic
 70
0
 40
0.0
 41
1.0
 50
0.0
 71
0
 42
2.5
  3
LiberationSans-BoldItalic.ttf
  4

  0
STYLE
  5
51
330
5
100
AcDbSymbolTableRecord
100
AcDbTextStyleTableRecord
  2
LiberationSans-Italic
 70
0
 40
0.0
 41
1.0
 50
0.0
 71
0
 42
2.5
  3
LiberationSans-Italic.ttf
  4

  0
STYLE
  5
52
330
5
100
AcDbSymbolTableRecord
100
AcDbTextStyleTableRecord
  2
LiberationSerif
 70
0
 40
0.0
 41
1.0
 50
0.0
 71
0
 42
2.5
  3
LiberationSerif-Regular.ttf
  4

  0
STYLE
  5
53
330
5
100
AcDbSymbolTableRecord
100
AcDbTextStyleTableRecord
  2
LiberationSerif-Bold
 70
0
 40
0.0
 41
1.0
 50
0.0
 71
0
 42
2.5
  3
LiberationSerif-Bold.ttf
  4

  0
STYLE
  5
54
330
5
100
AcDbSymbolTableRecord
100
AcDbTextStyleTableRecord
  2
LiberationSerif-BoldItalic
 70
0
 40
0.0
 41
1.0
 50
0.0
 71
0
 42
2.5
  3
LiberationSerif-BoldItalic.ttf
  4

  0
STYLE
  5
55
330
5
100
AcDbSymbolTableRecord
100
AcDbTextStyleTableRecord
  2
LiberationSerif-Italic
 70
0
 40
0.0
 41
1.0
 50
0.0
 71
0
 42
2.5
  3
LiberationSerif-Italic.ttf
  4

  0
STYLE
  5
56
330
5
100
AcDbSymbolTableRecord
100
AcDbTextStyleTableRecord
  2
LiberationMono
 70
0
 40
0.0
 41
1.0
 50
0.0
 71
0
 42
2.5
  3
LiberationMono-Regular.ttf
  4

  0
STYLE
  5
57
330
5
100
AcDbSymbolTableRecord
100
AcDbTextStyleTableRecord
  2
LiberationMono-Bold
 70
0
 40
0.0
 41
1.0
 50
0.0
 71
0
 42
2.5
  3
LiberationMono-Bold.ttf
  4

  0
STYLE
  5
58
330
5
100
AcDbSymbolTableRecord
100
AcDbTextStyleTableRecord
  2
LiberationMono-BoldItalic
 70
0
 40
0.0
 41
1.0
 50
0.0
 71
0
 42
2.5
  3
LiberationMono-BoldItalic.ttf
  4

  0
STYLE
  5
59
330
5
100
AcDbSymbolTableRecord
100
AcDbTextStyleTableRecord
  2
LiberationMono-Italic
 70
0
 40
0.0
 41
1.0
 50
0.0
 71
0
 42
2.5
  3
LiberationMono-Italic.ttf
  4

  0
ENDTAB
  0
TABLE
  2
VIEW
  5
7
330
0
100
AcDbSymbolTable
 70
0
  0
ENDTAB
  0
TABLE
  2
UCS
  5
6
330
0
100
AcDbSymbolTable
 70
0
  0
ENDTAB
  0
TABLE
  2
APPID
  5
3
330
0
100
AcDbSymbolTable
 70
3
  0
APPID
  5
2A
330
3
100
AcDbSymbolTableRecord
100
AcDbRegAppTableRecord
  2
ACAD
 70
0
  0
APPID
  5
218
330
3
100
AcDbSymbolTableRecord
100
AcDbRegAppTableRecord
  2
HATCHBACKGROUNDCOLOR
 70
0
  0
APPID
  5
219
330
3
100
AcDbSymbolTableRecord
100
AcDbRegAppTableRecord
  2
EZDXF
 70
0
  0
ENDTAB
  0
TABLE
  2
DIMSTYLE
  5
4
330
0
100
AcDbSymbolTable
 70
12
100
AcDbDimStyleTable
  0
DIMSTYLE
105
2B
330
4
100
AcDbSymbolTableRecord
100
AcDbDimStyleTableRecord
  2
Standard
 70
0
 40
1.0
 41
2.5
 42
0.625
 43
3.75
 44
1.25
 45
0.0
 46
0.0
 47
0.0
 48
0.0
 49
2.5
140
2.5
141
2.5
142
0.0
143
0.03937007874
144
1.0
145
0.0
146
1.0
147
0.625
148
0.0
 69
0
 70
0
 71
0
 72
0
 73
0
 74
0
 75
0
 76
0
 77
1
 78
8
 79
3
170
0
171
3
172
1
173
0
174
0
175
0
176
0
177
0
178
0
179
2
271
2
272
2
273
2
274
3
275
0
276
0
277
2
278
44
279
0
280
0
281
0
282
0
283
0
284
8
285
0
286
0
288
0
289
3
290
0
371
-2
372
-2
  0
DIMSTYLE
105
73
330
4
100
AcDbSymbolTableRecord
100
AcDbDimStyleTableRecord
  2
EZDXF
 70
0
 40
1.0
 41
0.175
 42
0.125
 43
3.75
 44
0.375
 45
0.0
 46
0.0
 47
0.0
 48
0.0
 49
2.5
140
0.25
141
2.5
142
0.0
143
0.03937007874
144
100.0
145
0.0
146
0.5
147
0.1
148
0.0
 69
0
 70
0
 71
0
 72
0
 73
0
 74
0
 75
0
 76
0
 77
1
 78
12
 79
3
170
0
171
3
172
1
173
0
174
0
175
0
176
0
177
0
178
0
179
2
271
2
272
2
273
2
274
3
275
0
276
0
277
2
278
46
279
2
280
0
281
0
282
0
283
0
284
8
285
0
286
0
288
1
289
3
290
0
340
4C
342
74
371
-2
372
-2
  0
DIMSTYLE
105
7C
330
4
100
AcDbSymbolTableRecord
100
AcDbDimStyleTableRecord
  2
EZ_M_100_H25_CM
 70
0
 40
1.0
 41
0.25
 42
0.125
 43
3.75
 44
0.375
 45
0.0
 46
0.0
 47
0.0
 48
0.0
 49
2.5
140
0.25
141
2.5
142
0.125
143
0.03937007874
144
100.0
145
0.0
146
0.5
147
0.1
148
0.0
 69
0
 70
0
 71
0
 72
0
 73
0
 74
0
 75
0
 76
0
 77
1
 78
12
 79
3
170
0
171
3
172
1
173
0
174
0
175
0
176
0
177
0
178
0
179
2
271
2
272
2
273
2
274
3
275
0
276
0
277
2
278
46
279
2
280
0
281
0
282
0
283
0
284
8
285
0
286
0
288
1
289
3
290
0
340
4C
371
-2
372
-2
  0
DIMSTYLE
105
7D
330
4
100
AcDbSymbolTableRecord
100
AcDbDimStyleTableRecord
  2
EZ_M_50_H25_CM
 70
0
 40
1.0
 41
0.125
 42
0.0625
 43
3.75
 44
0.1875
 45
0.0
 46
0.0
 47
0.0
 48
0.0
 49
2.5
140
0.125
141
2.5
142
0.0625
143
0.03937007874
144
100.0
145
0.0
146
0.5
147
0.05
148
0.0
 69
0
 70
0
 71
0
 72
0
 73
0
 74
0
 75
0
 76
0
 77
1
 78
12
 79
3
170
0
171
3
172
1
173
0
174
0
175
0
176
0
177
0
178
0
179
2
271
2
272
2
273
2
274
3
275
0
276
0
277
2
278
46
279
2
280
0
281
0
282
0
283
0
284
8
285
0
286
0
288
1
289
3
290
0
340
4C
371
-2
372
-2
  0
DIMSTYLE
105
7E
330
4
100
AcDbSymbolTableRecord
100
AcDbDimStyleTableRecord
  2
EZ_M_25_H25_CM
 70
0
 40
1.0
 41
0.0625
 42
0.03125
 43
3.75
 44
0.09375
 45
0.0
 46
0.0
 47
0.0
 48
0.0
 49
2.5
140
0.0625
141
2.5
142
0.03125
143
0.03937007874
144
100.0
145
0.0
146
0.5
147
0.025
148
0.0
 69
0
 70
0
 71
0
 72
0
 73
0
 74
0
 75
0
 76
0
 77
1
 78
12
 79
3
170
0
171
3
172
1
173
0
174
0
175
0
176
0
177
0
178
0
179
2
271
2
272
2
273
2
274
3
275
0
276
0
277
2
278
46
279
2
280
0
281
0
282
0
283
0
284
8
285
0
286
0
288
1
289
3
290
0
340
4C
371
-2
372
-2
  0
DIMSTYLE
105
7F
330
4
100
AcDbSymbolTableRecord
100
AcDbDimStyleTableRecord
  2
EZ_M_20_H25_CM
 70
0
 40
1.0
 41
0.05
 42
0.025
 43
3.75
 44
0.07500000000000001
 45
0.0
 46
0.0
 47
0.0
 48
0.0
 49
2.5
140
0.05
141
2.5
142
0.025
143
0.03937007874
144
100.0
145
0.0
146
0.5
147
0.020000000000000004
148
0.0
 69
0
 70
0
 71
0
 72
0
 73
0
 74
0
 75
0
 76
0
 77
1
 78
12
 79
3
170
0
171
3
172
1
173
0
174
0
175
0
176
0
177
0
178
0
179
2
271
2
272
2
273
2
274
3
275
0
276
0
277
2
278
46
279
2
280
0
281
0
282
0
283
0
284
8
285
0
286
0
288
1
289
3
290
0
340
4C
371
-2
372
-2
  0
DIMSTYLE
105
80
330
4
100
AcDbSymbolTableRecord
100
AcDbDimStyleTableRecord
  2
EZ_M_10_H25_CM
 70
0
 40
1.0
 41
0.025
 42
0.0125
 43
3.75
 44
0.037500000000000006
 45
0.0
 46
0.0
 47
0.0
 48
0.0
 49
2.5
140
0.025
141
2.5
142
0.0125
143
0.03937007874
144
100.0
145
0.0
146
0.5
147
0.010000000000000002
148
0.0
 69
0
 70
0
 71
0
 72
0
 73
0
 74
0
 75
0
 76
0
 77
1
 78
12
 79
3
170
0
171
3
172
1
173
0
174
0
175
0
176
0
177
0
178
0
179
2
271
2
272
2
273
2
274
3
275
0
276
0
277
2
278
46
279
2
280
0
281
0
282
0
283
0
284
8
285
0
286
0
288
1
289
3
290
0
340
4C
371
-2
372
-2
  0
DIMSTYLE
105
81
330
4
100
AcDbSymbolTableRecord
100
AcDbDimStyleTableRecord
  2
EZ_M_5_H25_CM
 70
0
 40
1.0
 41
0.0125
 42
0.00625
 43
3.75
 44
0.018750000000000003
 45
0.0
 46
0.0
 47
0.0
 48
0.0
 49
2.5
140
0.0125
141
2.5
142
0.00625
143
0.03937007874
144
100.0
145
0.0
146
0.5
147
0.005000000000000001
148
0.0
 69
0
 70
0
 71
0
 72
0
 73
0
 74
0
 75
0
 76
0
 77
1
 78
12
 79
3
170
0
171
3
172
1
173
0
174
0
175
0
176
0
177
0
178
0
179
2
271
2
272
2
273
2
274
3
275
0
276
0
277
2
278
46
279
2
280
0
281
0
282
0
283
0
284
8
285
0
286
0
288
1
289
3
290
0
340
4C
371
-2
372
-2
  0
DIMSTYLE
105
82
330
4
100
AcDbSymbolTableRecord
100
AcDbDimStyleTableRecord
  2
EZ_M_1_H25_CM
 70
0
 40
1.0
 41
0.0025
 42
0.00125
 43
3.75
 44
0.00375
 45
0.0
 46
0.0
 47
0.0
 48
0.0
 49
2.5
140
0.0025
141
2.5
142
0.00125
143
0.03937007874
144
100.0
145
0.0
146
0.5
147
0.001
148
0.0
 69
0
 70
0
 71
0
 72
0
 73
0
 74
0
 75
0
 76
0
 77
1
 78
12
 79
3
170
0
171
3
172
1
173
0
174
0
175
0
176
0
177
0
178
0
179
2
271
2
272
2
273
2
274
3
275
0
276
0
277
2
278
46
279
2
280
0
281
0
282
0
283
0
284
8
285
0
286
0
288
1
289
3
290
0
340
4C
371
-2
372
-2
  0
DIMSTYLE
105
83
330
4
100
AcDbSymbolTableRecord
100
AcDbDimStyleTableRecord
  2
EZ_RADIUS
 70
0
 40
1.0
 41
0.25
 42
0.125
 43
3.75
 44
0.375
 45
0.0
 46
0.0
 47
0.0
 48
0.0
 49
2.5
140
0.25
141
0.0
142
0.0
143
0.03937007874
144
100.0
145
0.0
146
0.5
147
0.1
148
0.0
 69
0
 70
0
 71
0
 72
0
 73
0
 74
0
 75
0
 76
0
 77
1
 78
12
 79
3
170
0
171
3
172
0
173
0
174
0
175
0
176
0
177
0
178
0
179
2
271
2
272
2
273
2
274
3
275
0
276
0
277
2
278
46
279
1
280
0
281
0
282
0
283
0
284
8
285
0
286
0
288
1
289
3
290
0
340
4C
342
84
371
-2
372
-2
  0
DIMSTYLE
105
88
330
4
100
AcDbSymbolTableRecord
100
AcDbDimStyleTableRecord
  2
EZ_RADIUS_INSIDE
 70
0
 40
1.0
 41
0.25
 42
0.125
 43
3.75
 44
0.375
 45
0.0
 46
0.0
 47
0.0
 48
0.0
 49
2.5
140
0.25
141
0.0
142
0.0
143
0.03937007874
144
100.0
145
0.0
146
0.5
147
0.1
148
0.0
 69
0
 70
0
 71
0
 72
0
 73
0
 74
0
 75
0
 76
0
 77
0
 78
12
 79
3
170
0
171
3
172
0
173
0
174
1
175
0
176
0
177
0
178
0
179
2
271
2
272
2
273
2
274
3
275
0
276
0
277
2
278
46
279
0
280
0
281
0
282
0
283
0
284
8
285
0
286
0
288
1
289
0
290
0
340
4C
342
84
371
-2
372
-2
  0
DIMSTYLE
105
89
330
4
100
AcDbSymbolTableRecord
100
AcDbDimStyleTableRecord
  2
EZ_CURVED
 70
0
 40
1.0
 41
0.25
 42
0.125
 43
3.75
 44
0.375
 45
0.0
 46
0.0
 47
0.0
 48
0.0
 49
2.5
140
0.25
141
2.5
142
0.0
143
0.03937007874
144
100.0
145
0.0
146
0.5
147
0.1
148
0.0
 69
0
 70
0
 71
0
 72
0
 73
0
 74
0
 75
0
 76
0
 77
1
 78
12
 79
2
 90
2
170
0
171
3
172
1
173
0
174
0
175
0
176
0
177
0
178
0
179
2
271
2
272
2
273
2
274
3
275
0
276
0
277
2
278
46
279
2
280
0
281
0
282
0
283
0
284
8
285
0
286
0
288
1
289
3
290
0
340
4C
371
-2
372
-2
  0
ENDTAB
  0
TABLE
  2
BLOCK_RECORD
  5
9
330
0
100
AcDbSymbolTable
 70
28
  0
BLOCK_RECORD
  5
17
330
9
100
AcDbSymbolTableRecord
100
AcDbBlockTableRecord
  2
*Model_Space
340
1A
 70
0
280
1
281
0
  0
BLOCK_RECORD
  5
1B
330
9
100
AcDbSymbolTableRecord
100
AcDbBlockTableRecord
  2
*Paper_Space
340
1E
 70
0
280
1
281
0
  0
BLOCK_RECORD
  5
74
330
9
100
AcDbSymbolTableRecord
100
AcDbBlockTableRecord
  2
_ARCHTICK
340
0
 70
0
280
1
281
0
  0
BLOCK_RECORD
  5
78
330
9
100
AcDbSymbolTableRecord
100
AcDbBlockTableRecord
  2
_CLOSEDFILLED
340
0
 70
0
280
1
281
0
  0
BLOCK_RECORD
  5
84
330
9
100
AcDbSymbolTableRecord
100
AcDbBlockTableRecord
  2
_CLOSEDBLANK
340
0
 70
0
280
1
281
0
  0
BLOCK_RECORD
  5
9E
330
9
100
AcDbSymbolTableRecord
100
AcDbBlockTableRecord
  2
TJ_WC
340
0
 70
0
280
1
281
0
  0
BLOCK_RECORD
  5
A4
330
9
100
AcDbSymbolTableRecord
100
AcDbBlockTableRecord
  2
TJ_LAVABO
340
0
 70
0
280
1
281
0
  0
BLOCK_RECORD
  5
AB
330
9
100
AcDbSymbolTableRecord
100
AcDbBlockTableRecord
  2
TJ_DOUCHE
340
0
 70
0
280
1
281
0
  0
BLOCK_RECORD
  5
B3
330
9
100
AcDbSymbolTableRecord
100
AcDbBlockTableRecord
  2
TJ_EVIER
340
0
 70
0
280
1
281
0
  0
BLOCK_RECORD
  5
BC
330
9
100
AcDbSymbolTableRecord
100
AcDbBlockTableRecord
  2
TJ_BAIGNOIRE
340
0
 70
0
280
1
281
0
  0
BLOCK_RECORD
  5
C3
330
9
100
AcDbSymbolTableRecord
100
AcDbBlockTableRecord
  2
TJ_CHAUFFE_EAU
340
0
 70
0
280
1
281
0
  0
BLOCK_RECORD
  5
C9
330
9
100
AcDbSymbolTableRecord
100
AcDbBlockTableRecord
  2
TJ_LAVE_LINGE
340
0
 70
0
280
1
281
0
  0
BLOCK_RECORD
  5
CF
330
9
100
AcDbSymbolTableRecord
100
AcDbBlockTableRecord
  2
TJ_SPLIT
340
0
 70
0
280
1
281
0
  0
BLOCK_RECORD
  5
DE
330
9
100
AcDbSymbolTableRecord
100
AcDbBlockTableRecord
  2
TJ_VMC
340
0
 70
0
280
1
281
0
  0
BLOCK_RECORD
  5
E4
330
9
100
AcDbSymbolTableRecord
100
AcDbBlockTableRecord
  2
TJ_HOTTE
340
0
 70
0
280
1
281
0
  0
BLOCK_RECORD
  5
E9
330
9
100
AcDbSymbolTableRecord
100
AcDbBlockTableRecord
  2
TJ_PRISE
340
0
 70
0
280
1
281
0
  0
BLOCK_RECORD
  5
EF
330
9
100
AcDbSymbolTableRecord
100
AcDbBlockTableRecord
  2
TJ_INTER
340
0
 70
0
280
1
281
0
  0
BLOCK_RECORD
  5
F4
330
9
100
AcDbSymbolTableRecord
100
AcDbBlockTableRecord
  2
TJ_LUMINAIRE
340
0
 70
0
280
1
281
0
  0
BLOCK_RECORD
  5
FA
330
9
100
AcDbSymbolTableRecord
100
AcDbBlockTableRecord
  2
TJ_APPLIQUE
340
0
 70
0
280
1
281
0
  0
BLOCK_RECORD
  5
FF
330
9
100
AcDbSymbolTableRecord
100
AcDbBlockTableRecord
  2
TJ_TABLEAU
340
0
 70
0
280
1
281
0
  0
BLOCK_RECORD
  5
105
330
9
100
AcDbSymbolTableRecord
100
AcDbBlockTableRecord
  2
TJ_RJ45
340
0
 70
0
280
1
281
0
  0
BLOCK_RECORD
  5
10A
330
9
100
AcDbSymbolTableRecord
100
AcDbBlockTableRecord
  2
TJ_TV
340
0
 70
0
280
1
281
0
  0
BLOCK_RECORD
  5
10F
330
9
100
AcDbSymbolTableRecord
100
AcDbBlockTableRecord
  2
TJ_SPK
340
0
 70
0
280
1
281
0
  0
BLOCK_RECORD
  5
115
330
9
100
AcDbSymbolTableRecord
100
AcDbBlockTableRecord
  2
TJ_DF
340
0
 70
0
280
1
281
0
  0
BLOCK_RECORD
  5
11A
330
9
100
AcDbSymbolTableRecord
100
AcDbBlockTableRecord
  2
TJ_DC
340
0
 70
0
280
1
281
0
  0
BLOCK_RECORD
  5
11F
330
9
100
AcDbSymbolTableRecord
100
AcDbBlockTableRecord
  2
TJ_RIA
340
0
 70
0
280
1
281
0
  0
BLOCK_RECORD
  5
125
330
9
100
AcDbSymbolTableRecord
100
AcDbBlockTableRecord
  2
TJ_DOOR
340
0
 70
0
280
1
281
0
  0
BLOCK_RECORD
  5
12B
330
9
100
AcDbSymbolTableRecord
100
AcDbBlockTableRecord
  2
TJ_WINDOW
340
0
 70
0
280
1
281
0
  0
ENDTAB
  0
ENDSEC
  0
SECTION
  2
BLOCKS
  0
BLOCK
  5
18
330
17
100
AcDbEntity
  8
0
100
AcDbBlockBegin
  2
*Model_Space
 70
0
 10
0.0
 20
0.0
 30
0.0
  3
*Model_Space
  1

  0
ENDBLK
  5
19
330
17
100
AcDbEntity
  8
0
100
AcDbBlockEnd
  0
BLOCK
  5
1C
330
1B
100
AcDbEntity
  8
0
100
AcDbBlockBegin
  2
*Paper_Space
 70
0
 10
0.0
 20
0.0
 30
0.0
  3
*Paper_Space
  1

  0
ENDBLK
  5
1D
330
1B
100
AcDbEntity
  8
0
100
AcDbBlockEnd
  0
BLOCK
  5
75
330
74
100
AcDbEntity
  8
0
100
AcDbBlockBegin
  2
_ARCHTICK
 70
0
 10
0.0
 20
0.0
 30
0.0
  3
_ARCHTICK
  1

  0
LWPOLYLINE
  5
77
330
74
100
AcDbEntity
  8
0
  6
BYBLOCK
 62
0
100
AcDbPolyline
 90
2
 70
0
 43
0.15
 10
-0.5
 20
-0.5
 10
0.5
 20
0.5
  0
ENDBLK
  5
76
330
74
100
AcDbEntity
  8
0
100
AcDbBlockEnd
  0
BLOCK
  5
79
330
78
100
AcDbEntity
  8
0
100
AcDbBlockBegin
  2
_CLOSEDFILLED
 70
0
 10
0.0
 20
0.0
 30
0.0
  3
_CLOSEDFILLED
  1

  0
SOLID
  5
7B
330
78
100
AcDbEntity
  8
0
  6
BYBLOCK
 62
0
100
AcDbTrace
 10
-1.0
 20
0.16439898372402537
 30
0.0
 11
0.0
 21
0.0
 31
0.0
 12
-1.0
 22
-0.16439898372402537
 32
0.0
 13
-1.0
 23
-0.16439898372402537
 33
0.0
  0
ENDBLK
  5
7A
330
78
100
AcDbEntity
  8
0
100
AcDbBlockEnd
  0
BLOCK
  5
85
330
84
100
AcDbEntity
  8
0
100
AcDbBlockBegin
  2
_CLOSEDBLANK
 70
0
 10
0.0
 20
0.0
 30
0.0
  3
_CLOSEDBLANK
  1

  0
LWPOLYLINE
  5
87
330
84
100
AcDbEntity
  8
0
  6
BYBLOCK
 62
0
100
AcDbPolyline
 90
3
 70
1
 10
-1.0
 20
0.16439898372402537
 10
0.0
 20
0.0
 10
-1.0
 20
-0.16439898372402537
  0
ENDBLK
  5
86
330
84
100
AcDbEntity
  8
0
100
AcDbBlockEnd
  0
BLOCK
  5
9F
330
9E
100
AcDbEntity
  8
0
100
AcDbBlockBegin
  2
TJ_WC
 70
0
 10
0.0
 20
0.0
 30
0.0
  3
TJ_WC
  1

  0
LWPOLYLINE
  5
A1
330
9E
100
AcDbEntity
  8
P-FIXT
100
AcDbPolyline
 90
4
 70
1
 10
-0.19
 20
0.55
 10
0.19
 20
0.55
 10
0.19
 20
0.7
 10
-0.19
 20
0.7
  0
LWPOLYLINE
  5
A2
330
9E
100
AcDbEntity
  8
P-FIXT
100
AcDbPolyline
 90
25
 70
1
 10
0.0
 20
0.4
 10
0.028158203707241557
 20
0.39692208514878446
 10
0.05562305898749053
 20
0.3877641290737884
 10
0.08171828995311842
 20
0.37275163104709197
 10
0.10580134541264516
 20
0.3522542485937369
 10
0.12727922061357855
 20
0.3267766952966369
 10
0.14562305898749053
 20
0.29694631307311825
 10
0.16038117435390623
 20
0.2634976249348867
 10
0.17119017293312763
 20
0.22725424859373686
 10
0.1777839013071248
 20
0.18910861626005773
 10
0.18
 20
0.15000000000000002
 10
0.1777839013071248
 20
0.11089138373994234
 10
0.17119017293312766
 20
0.07274575140626316
 10
0.16038117435390623
 20
0.03650237506511331
 10
0.14562305898749053
 20
0.003053686926881738
 10
0.12727922061357855
 20
-0.02677669529663687
 10
0.10580134541264519
 20
-0.05225424859373684
 10
0.08171828995311843
 20
-0.07275163104709195
 10
0.05562305898749055
 20
-0.08776412907378839
 10
0.028158203707241574
 20
-0.09692208514878442
 10
2.2043642384652358e-17
 20
-0.1
 10
-0.18
 20
0.15
 10
-0.19
 20
0.55
 10
0.19
 20
0.55
 10
0.18
 20
0.15
  0
LWPOLYLINE
  5
A3
330
9E
100
AcDbEntity
  8
P-FIXT
100
AcDbPolyline
 90
18
 70
1
 10
0.0
 20
0.36
 10
0.02341083864193539
 20
0.35654135047258145
 10
0.04592201188381077
 20
0.34629831585203164
 10
0.06666842796235226
 20
0.32966453021445813
 10
0.0848528137423857
 20
0.30727922061357854
 10
0.09977635347630542
 20
0.2800026419435284
 10
0.1108655439013544
 20
0.24888301782571615
 10
0.11769423364838764
 20
0.2151162579629031
 10
0.12
 20
0.18
 10
0.11769423364838764
 20
0.14488374203709692
 10
0.1108655439013544
 20
0.11111698217428384
 10
0.09977635347630544
 20
0.07999735805647165
 10
0.08485281374238571
 20
0.052720779386421446
 10
0.06666842796235226
 20
0.03033546978554183
 10
0.04592201188381079
 20
0.01370168414796838
 10
0.02341083864193543
 20
0.0034586495274185336
 10
1.4695761589768237e-17
 20
0.0
 10
-0.12
 20
0.18
  0
ENDBLK
  5
A0
330
9E
100
AcDbEntity
  8
0
100
AcDbBlockEnd
  0
BLOCK
  5
A5
330
A4
100
AcDbEntity
  8
0
100
AcDbBlockBegin
  2
TJ_LAVABO
 70
0
 10
0.0
 20
0.0
 30
0.0
  3
TJ_LAVABO
  1

  0
LWPOLYLINE
  5
A7
330
A4
100
AcDbEntity
  8
P-FIXT
100
AcDbPolyline
 90
24
 70
1
 10
-0.25
 20
0.4
 10
0.0
 20
0.35
 10
0.03910861626005772
 20
0.3456909192082982
 10
0.07725424859373685
 20
0.3328697807033037
 10
0.1134976249348867
 20
0.31185228346592875
 10
0.14694631307311828
 20
0.28315594803123156
 10
0.17677669529663687
 20
0.24748737341529164
 10
0.20225424859373686
 20
0.2057248383023656
 10
0.22275163104709197
 20
0.15889667490884138
 10
0.23776412907378838
 20
0.1081559480312316
 10
0.24692208514878444
 20
0.05475206276408082
 10
0.25
 20
2.143131898507868e-17
 10
0.24692208514878444
 20
-0.054752062764080706
 10
0.2377641290737884
 20
-0.10815594803123156
 10
0.22275163104709197
 20
-0.15889667490884135
 10
0.20225424859373686
 20
-0.20572483830236554
 10
0.1767766952966369
 20
-0.2474873734152916
 10
0.1469463130731183
 20
-0.28315594803123156
 10
0.11349762493488671
 20
-0.3118522834659287
 10
0.07725424859373688
 20
-0.3328697807033037
 10
0.039108616260057745
 20
-0.34569091920829814
 10
3.061616997868383e-17
 20
-0.35
 10
-0.25
 20
0.0
 10
-0.25
 20
0.4
  0
LWPOLYLINE
  5
A8
330
A4
100
AcDbEntity
  8
P-FIXT
100
AcDbPolyline
 90
20
 70
1
 10
-0.18
 20
0.35
 10
0.0
 20
0.3
 10
0.03511625796290308
 20
0.2951963201008076
 10
0.06888301782571615
 20
0.2809698831278217
 10
0.10000264194352838
 20
0.2578674030756363
 10
0.12727922061357855
 20
0.2267766952966369
 10
0.14966453021445814
 20
0.1888925582549006
 10
0.16629831585203161
 20
0.14567085809127245
 10
0.17654135047258146
 20
0.09877258050403209
 10
0.18
 20
0.05000000000000002
 10
0.17654135047258146
 20
0.0012274194959679546
 10
0.16629831585203161
 20
-0.04567085809127243
 10
0.14966453021445816
 20
-0.08889255825490049
 10
0.12727922061357855
 20
-0.12677669529663688
 10
0.10000264194352838
 20
-0.15786740307563635
 10
0.06888301782571618
 20
-0.1809698831278217
 10
0.03511625796290315
 20
-0.19519632010080762
 10
2.2043642384652358e-17
 20
-0.2
 10
-0.18
 20
0.05
 10
-0.18
 20
0.35
  0
CIRCLE
  5
A9
330
A4
100
AcDbEntity
  8
P-FIXT
100
AcDbCircle
 10
0.0
 20
0.18
 30
0.0
 40
0.02
  0
LWPOLYLINE
  5
AA
330
A4
100
AcDbEntity
  8
P-FIXT
100
AcDbPolyline
 90
4
 70
1
 10
-0.03
 20
0.37
 10
0.03
 20
0.37
 10
0.03
 20
0.4
 10
-0.03
 20
0.4
  0
ENDBLK
  5
A6
330
A4
100
AcDbEntity
  8
0
100
AcDbBlockEnd
  0
BLOCK
  5
AC
330
AB
100
AcDbEntity
  8
0
100
AcDbBlockBegin
  2
TJ_DOUCHE
 70
0
 10
0.0
 20
0.0
 30
0.0
  3
TJ_DOUCHE
  1

  0
LWPOLYLINE
  5
AE
330
AB
100
AcDbEntity
  8
P-FIXT
100
AcDbPolyline
 90
4
 70
1
 10
0.0
 20
0.0
 10
0.9
 20
0.0
 10
0.9
 20
0.9
 10
0.0
 20
0.9
  0
LWPOLYLINE
  5
AF
330
AB
100
AcDbEntity
  8
P-FIXT
100
AcDbPolyline
 90
4
 70
1
 10
0.05
 20
0.05
 10
0.85
 20
0.05
 10
0.85
 20
0.85
 10
0.05
 20
0.85
  0
CIRCLE
  5
B0
330
AB
100
AcDbEntity
  8
P-FIXT
100
AcDbCircle
 10
0.45
 20
0.45
 30
0.0
 40
0.04
  0
LINE
  5
B1
330
AB
100
AcDbEntity
  8
P-FIXT
100
AcDbLine
 10
0.0
 20
0.0
 30
0.0
 11
0.9
 21
0.9
 31
0.0
  0
LINE
  5
B2
330
AB
100
AcDbEntity
  8
P-FIXT
100
AcDbLine
 10
0.9
 20
0.0
 30
0.0
 11
0.0
 21
0.9
 31
0.0
  0
ENDBLK
  5
AD
330
AB
100
AcDbEntity
  8
0
100
AcDbBlockEnd
  0
BLOCK
  5
B4
330
B3
100
AcDbEntity
  8
0
100
AcDbBlockBegin
  2
TJ_EVIER
 70
0
 10
0.0
 20
0.0
 30
0.0
  3
TJ_EVIER
  1

  0
LWPOLYLINE
  5
B6
330
B3
100
AcDbEntity
  8
P-FIXT
100
AcDbPolyline
 90
4
 70
1
 10
0.0
 20
0.0
 10
0.8
 20
0.0
 10
0.8
 20
0.5
 10
0.0
 20
0.5
  0
LWPOLYLINE
  5
B7
330
B3
100
AcDbEntity
  8
P-FIXT
100
AcDbPolyline
 90
4
 70
1
 10
0.05
 20
0.05
 10
0.37
 20
0.05
 10
0.37
 20
0.42
 10
0.05
 20
0.42
  0
LWPOLYLINE
  5
B8
330
B3
100
AcDbEntity
  8
P-FIXT
100
AcDbPolyline
 90
4
 70
1
 10
0.43
 20
0.05
 10
0.75
 20
0.05
 10
0.75
 20
0.42
 10
0.43
 20
0.42
  0
CIRCLE
  5
B9
330
B3
100
AcDbEntity
  8
P-FIXT
100
AcDbCircle
 10
0.21
 20
0.23
 30
0.0
 40
0.02
  0
CIRCLE
  5
BA
330
B3
100
AcDbEntity
  8
P-FIXT
100
AcDbCircle
 10
0.59
 20
0.23
 30
0.0
 40
0.02
  0
CIRCLE
  5
BB
330
B3
100
AcDbEntity
  8
P-FIXT
100
AcDbCircle
 10
0.4
 20
0.45
 30
0.0
 40
0.03
  0
ENDBLK
  5
B5
330
B3
100
AcDbEntity
  8
0
100
AcDbBlockEnd
  0
BLOCK
  5
BD
330
BC
100
AcDbEntity
  8
0
100
AcDbBlockBegin
  2
TJ_BAIGNOIRE
 70
0
 10
0.0
 20
0.0
 30
0.0
  3
TJ_BAIGNOIRE
  1

  0
LWPOLYLINE
  5
BF
330
BC
100
AcDbEntity
  8
P-FIXT
100
AcDbPolyline
 90
8
 70
1
 10
0.0
 20
0.1
 10
0.0
 20
0.6
 40
0.4
 41
0.0
 10
0.1
 20
0.7
 10
1.6
 20
0.7
 40
0.4
 41
0.0
 10
1.7
 20
0.6
 10
1.7
 20
0.1
 40
0.4
 41
0.0
 10
1.6
 20
0.0
 10
0.1
 20
0.0
 40
0.4
 41
0.0
  0
LWPOLYLINE
  5
C0
330
BC
100
AcDbEntity
  8
P-FIXT
100
AcDbPolyline
 90
4
 70
1
 10
0.08
 20
0.08
 10
1.62
 20
0.08
 10
1.62
 20
0.62
 10
0.08
 20
0.62
  0
CIRCLE
  5
C1
330
BC
100
AcDbEntity
  8
P-FIXT
100
AcDbCircle
 10
1.45
 20
0.35
 30
0.0
 40
0.03
  0
LWPOLYLINE
  5
C2
330
BC
100
AcDbEntity
  8
P-FIXT
100
AcDbPolyline
 90
4
 70
1
 10
0.12
 20
0.28
 10
0.12
 20
0.42
 10
0.05
 20
0.42
 10
0.05
 20
0.28
  0
ENDBLK
  5
BE
330
BC
100
AcDbEntity
  8
0
100
AcDbBlockEnd
  0
BLOCK
  5
C4
330
C3
100
AcDbEntity
  8
0
100
AcDbBlockBegin
  2
TJ_CHAUFFE_EAU
 70
0
 10
0.0
 20
0.0
 30
0.0
  3
TJ_CHAUFFE_EAU
  1

  0
CIRCLE
  5
C6
330
C3
100
AcDbEntity
  8
P-FIXT
100
AcDbCircle
 10
0.0
 20
0.0
 30
0.0
 40
0.25
  0
CIRCLE
  5
C7
330
C3
100
AcDbEntity
  8
P-FIXT
100
AcDbCircle
 10
0.0
 20
0.0
 30
0.0
 40
0.2
  0
TEXT
  5
C8
330
C3
100
AcDbEntity
  8
P-FIXT
100
AcDbText
 10
-0.08
 20
-0.05
 30
0.0
 40
0.1
  1
CE
100
AcDbText
  0
ENDBLK
  5
C5
330
C3
100
AcDbEntity
  8
0
100
AcDbBlockEnd
  0
BLOCK
  5
CA
330
C9
100
AcDbEntity
  8
0
100
AcDbBlockBegin
  2
TJ_LAVE_LINGE
 70
0
 10
0.0
 20
0.0
 30
0.0
  3
TJ_LAVE_LINGE
  1

  0
LWPOLYLINE
  5
CC
330
C9
100
AcDbEntity
  8
P-FIXT
100
AcDbPolyline
 90
4
 70
1
 10
0.0
 20
0.0
 10
0.6
 20
0.0
 10
0.6
 20
0.6
 10
0.0
 20
0.6
  0
CIRCLE
  5
CD
330
C9
100
AcDbEntity
  8
P-FIXT
100
AcDbCircle
 10
0.3
 20
0.3
 30
0.0
 40
0.2
  0
CIRCLE
  5
CE
330
C9
100
AcDbEntity
  8
P-FIXT
100
AcDbCircle
 10
0.3
 20
0.3
 30
0.0
 40
0.05
  0
ENDBLK
  5
CB
330
C9
100
AcDbEntity
  8
0
100
AcDbBlockEnd
  0
BLOCK
  5
D0
330
CF
100
AcDbEntity
  8
0
100
AcDbBlockBegin
  2
TJ_SPLIT
 70
0
 10
0.0
 20
0.0
 30
0.0
  3
TJ_SPLIT
  1

  0
LWPOLYLINE
  5
D2
330
CF
100
AcDbEntity
  8
M-EQUIP
100
AcDbPolyline
 90
4
 70
1
 10
0.0
 20
0.0
 10
0.9
 20
0.0
 10
0.9
 20
0.22
 10
0.0
 20
0.22
  0
LINE
  5
D3
330
CF
100
AcDbEntity
  8
M-EQUIP
100
AcDbLine
 10
0.22
 20
0.0
 30
0.0
 11
0.22
 21
-0.15
 31
0.0
  0
LINE
  5
D4
330
CF
100
AcDbEntity
  8
M-EQUIP
100
AcDbLine
 10
0.22
 20
-0.15
 30
0.0
 11
0.18
 21
-0.1
 31
0.0
  0
LINE
  5
D5
330
CF
100
AcDbEntity
  8
M-EQUIP
100
AcDbLine
 10
0.22
 20
-0.15
 30
0.0
 11
0.26
 21
-0.1
 31
0.0
  0
LINE
  5
D6
330
CF
100
AcDbEntity
  8
M-EQUIP
100
AcDbLine
 10
0.45
 20
0.0
 30
0.0
 11
0.45
 21
-0.15
 31
0.0
  0
LINE
  5
D7
330
CF
100
AcDbEntity
  8
M-EQUIP
100
AcDbLine
 10
0.45
 20
-0.15
 30
0.0
 11
0.41000000000000003
 21
-0.1
 31
0.0
  0
LINE
  5
D8
330
CF
100
AcDbEntity
  8
M-EQUIP
100
AcDbLine
 10
0.45
 20
-0.15
 30
0.0
 11
0.49
 21
-0.1
 31
0.0
  0
LINE
  5
D9
330
CF
100
AcDbEntity
  8
M-EQUIP
100
AcDbLine
 10
0.68
 20
0.0
 30
0.0
 11
0.68
 21
-0.15
 31
0.0
  0
LINE
  5
DA
330
CF
100
AcDbEntity
  8
M-EQUIP
100
AcDbLine
 10
0.68
 20
-0.15
 30
0.0
 11
0.64
 21
-0.1
 31
0.0
  0
LINE
  5
DB
330
CF
100
AcDbEntity
  8
M-EQUIP
100
AcDbLine
 10
0.68
 20
-0.15
 30
0.0
 11
0.7200000000000001
 21
-0.1
 31
0.0
  0
CIRCLE
  5
DC
330
CF
100
AcDbEntity
  8
M-EQUIP
100
AcDbCircle
 10
-0.04
 20
0.07
 30
0.0
 40
0.02
  0
CIRCLE
  5
DD
330
CF
100
AcDbEntity
  8
M-EQUIP
100
AcDbCircle
 10
-0.04
 20
0.15
 30
0.0
 40
0.02
  0
ENDBLK
  5
D1
330
CF
100
AcDbEntity
  8
0
100
AcDbBlockEnd
  0
BLOCK
  5
DF
330
DE
100
AcDbEntity
  8
0
100
AcDbBlockBegin
  2
TJ_VMC
 70
0
 10
0.0
 20
0.0
 30
0.0
  3
TJ_VMC
  1

  0
CIRCLE
  5
E1
330
DE
100
AcDbEntity
  8
M-EQUIP
100
AcDbCircle
 10
0.0
 20
0.0
 30
0.0
 40
0.075
  0
LINE
  5
E2
330
DE
100
AcDbEntity
  8
M-EQUIP
100
AcDbLine
 10
-0.05
 20
-0.05
 30
0.0
 11
0.05
 21
0.05
 31
0.0
  0
LINE
  5
E3
330
DE
100
AcDbEntity
  8
M-EQUIP
100
AcDbLine
 10
-0.05
 20
0.05
 30
0.0
 11
0.05
 21
-0.05
 31
0.0
  0
ENDBLK
  5
E0
330
DE
100
AcDbEntity
  8
0
100
AcDbBlockEnd
  0
BLOCK
  5
E5
330
E4
100
AcDbEntity
  8
0
100
AcDbBlockBegin
  2
TJ_HOTTE
 70
0
 10
0.0
 20
0.0
 30
0.0
  3
TJ_HOTTE
  1

  0
LWPOLYLINE
  5
E7
330
E4
100
AcDbEntity
  8
M-EQUIP
100
AcDbPolyline
 90
4
 70
1
 10
0.05
 20
0.0
 10
0.55
 20
0.0
 10
0.6
 20
0.5
 10
0.0
 20
0.5
  0
CIRCLE
  5
E8
330
E4
100
AcDbEntity
  8
M-EQUIP
100
AcDbCircle
 10
0.3
 20
0.25
 30
0.0
 40
0.08
  0
ENDBLK
  5
E6
330
E4
100
AcDbEntity
  8
0
100
AcDbBlockEnd
  0
BLOCK
  5
EA
330
E9
100
AcDbEntity
  8
0
100
AcDbBlockBegin
  2
TJ_PRISE
 70
0
 10
0.0
 20
0.0
 30
0.0
  3
TJ_PRISE
  1

  0
LWPOLYLINE
  5
EC
330
E9
100
AcDbEntity
  8
E-POWR
100
AcDbPolyline
 90
13
 70
0
 10
0.04
 20
0.0
 10
0.038637033051562734
 20
0.01035276180410083
 10
0.034641016151377546
 20
0.019999999999999997
 10
0.028284271247461905
 20
0.028284271247461898
 10
0.020000000000000004
 20
0.034641016151377546
 10
0.01035276180410083
 20
0.038637033051562734
 10
2.4492935982947064e-18
 20
0.04
 10
-0.010352761804100826
 20
0.038637033051562734
 10
-0.019999999999999993
 20
0.034641016151377546
 10
-0.028284271247461898
 20
0.028284271247461905
 10
-0.034641016151377546
 20
0.019999999999999997
 10
-0.03863703305156273
 20
0.010352761804100842
 10
-0.04
 20
4.898587196589413e-18
  0
LINE
  5
ED
330
E9
100
AcDbEntity
  8
E-POWR
100
AcDbLine
 10
-0.04
 20
0.0
 30
0.0
 11
0.04
 21
0.0
 31
0.0
  0
LINE
  5
EE
330
E9
100
AcDbEntity
  8
E-POWR
100
AcDbLine
 10
0.0
 20
0.0
 30
0.0
 11
0.0
 21
-0.03
 31
0.0
  0
ENDBLK
  5
EB
330
E9
100
AcDbEntity
  8
0
100
AcDbBlockEnd
  0
BLOCK
  5
F0
330
EF
100
AcDbEntity
  8
0
100
AcDbBlockBegin
  2
TJ_INTER
 70
0
 10
0.0
 20
0.0
 30
0.0
  3
TJ_INTER
  1

  0
CIRCLE
  5
F2
330
EF
100
AcDbEntity
  8
E-POWR
100
AcDbCircle
 10
0.0
 20
0.0
 30
0.0
 40
0.03
  0
LINE
  5
F3
330
EF
100
AcDbEntity
  8
E-POWR
100
AcDbLine
 10
0.03
 20
0.0
 30
0.0
 11
0.08
 21
0.05
 31
0.0
  0
ENDBLK
  5
F1
330
EF
100
AcDbEntity
  8
0
100
AcDbBlockEnd
  0
BLOCK
  5
F5
330
F4
100
AcDbEntity
  8
0
100
AcDbBlockBegin
  2
TJ_LUMINAIRE
 70
0
 10
0.0
 20
0.0
 30
0.0
  3
TJ_LUMINAIRE
  1

  0
CIRCLE
  5
F7
330
F4
100
AcDbEntity
  8
E-LITE
100
AcDbCircle
 10
0.0
 20
0.0
 30
0.0
 40
0.05
  0
LINE
  5
F8
330
F4
100
AcDbEntity
  8
E-LITE
100
AcDbLine
 10
-0.035
 20
-0.035
 30
0.0
 11
0.035
 21
0.035
 31
0.0
  0
LINE
  5
F9
330
F4
100
AcDbEntity
  8
E-LITE
100
AcDbLine
 10
-0.035
 20
0.035
 30
0.0
 11
0.035
 21
-0.035
 31
0.0
  0
ENDBLK
  5
F6
330
F4
100
AcDbEntity
  8
0
100
AcDbBlockEnd
  0
BLOCK
  5
FB
330
FA
100
AcDbEntity
  8
0
100
AcDbBlockBegin
  2
TJ_APPLIQUE
 70
0
 10
0.0
 20
0.0
 30
0.0
  3
TJ_APPLIQUE
  1

  0
LWPOLYLINE
  5
FD
330
FA
100
AcDbEntity
  8
E-LITE
100
AcDbPolyline
 90
13
 70
0
 10
0.04
 20
0.0
 10
0.038637033051562734
 20
0.01035276180410083
 10
0.034641016151377546
 20
0.019999999999999997
 10
0.028284271247461905
 20
0.028284271247461898
 10
0.020000000000000004
 20
0.034641016151377546
 10
0.01035276180410083
 20
0.038637033051562734
 10
2.4492935982947064e-18
 20
0.04
 10
-0.010352761804100826
 20
0.038637033051562734
 10
-0.019999999999999993
 20
0.034641016151377546
 10
-0.028284271247461898
 20
0.028284271247461905
 10
-0.034641016151377546
 20
0.019999999999999997
 10
-0.03863703305156273
 20
0.010352761804100842
 10
-0.04
 20
4.898587196589413e-18
  0
LINE
  5
FE
330
FA
100
AcDbEntity
  8
E-LITE
100
AcDbLine
 10
-0.04
 20
0.0
 30
0.0
 11
0.04
 21
0.0
 31
0.0
  0
ENDBLK
  5
FC
330
FA
100
AcDbEntity
  8
0
100
AcDbBlockEnd
  0
BLOCK
  5
100
330
FF
100
AcDbEntity
  8
0
100
AcDbBlockBegin
  2
TJ_TABLEAU
 70
0
 10
0.0
 20
0.0
 30
0.0
  3
TJ_TABLEAU
  1

  0
LWPOLYLINE
  5
102
330
FF
100
AcDbEntity
  8
E-POWR
100
AcDbPolyline
 90
4
 70
1
 10
0.0
 20
0.0
 10
0.4
 20
0.0
 10
0.4
 20
0.6
 10
0.0
 20
0.6
  0
TEXT
  5
103
330
FF
100
AcDbEntity
  8
E-POWR
100
AcDbText
 10
0.08
 20
0.24
 30
0.0
 40
0.12
  1
TE
100
AcDbText
  0
LWPOLYLINE
  5
104
330
FF
100
AcDbEntity
  8
E-POWR
100
AcDbPolyline
 90
4
 70
0
 10
0.2
 20
0.5
 10
0.15
 20
0.38
 10
0.25
 20
0.38
 10
0.2
 20
0.26
  0
ENDBLK
  5
101
330
FF
100
AcDbEntity
  8
0
100
AcDbBlockEnd
  0
BLOCK
  5
106
330
105
100
AcDbEntity
  8
0
100
AcDbBlockBegin
  2
TJ_RJ45
 70
0
 10
0.0
 20
0.0
 30
0.0
  3
TJ_RJ45
  1

  0
LWPOLYLINE
  5
108
330
105
100
AcDbEntity
  8
E-LCCR
100
AcDbPolyline
 90
3
 70
1
 10
0.0
 20
0.06
 10
-0.04
 20
-0.02
 10
0.04
 20
-0.02
  0
TEXT
  5
109
330
105
100
AcDbEntity
  8
E-LCCR
100
AcDbText
 10
-0.01
 20
-0.01
 30
0.0
 40
0.03
  1
D
100
AcDbText
  0
ENDBLK
  5
107
330
105
100
AcDbEntity
  8
0
100
AcDbBlockEnd
  0
BLOCK
  5
10B
330
10A
100
AcDbEntity
  8
0
100
AcDbBlockBegin
  2
TJ_TV
 70
0
 10
0.0
 20
0.0
 30
0.0
  3
TJ_TV
  1

  0
LWPOLYLINE
  5
10D
330
10A
100
AcDbEntity
  8
E-LCCR
100
AcDbPolyline
 90
3
 70
1
 10
0.0
 20
0.06
 10
-0.04
 20
-0.02
 10
0.04
 20
-0.02
  0
TEXT
  5
10E
330
10A
100
AcDbEntity
  8
E-LCCR
100
AcDbText
 10
-0.015
 20
-0.01
 30
0.0
 40
0.025
  1
TV
100
AcDbText
  0
ENDBLK
  5
10C
330
10A
100
AcDbEntity
  8
0
100
AcDbBlockEnd
  0
BLOCK
  5
110
330
10F
100
AcDbEntity
  8
0
100
AcDbBlockBegin
  2
TJ_SPK
 70
0
 10
0.0
 20
0.0
 30
0.0
  3
TJ_SPK
  1

  0
CIRCLE
  5
112
330
10F
100
AcDbEntity
  8
F-SPKL
100
AcDbCircle
 10
0.0
 20
0.0
 30
0.0
 40
0.05
  0
LINE
  5
113
330
10F
100
AcDbEntity
  8
F-SPKL
100
AcDbLine
 10
-0.05
 20
0.0
 30
0.0
 11
0.05
 21
0.0
 31
0.0
  0
LINE
  5
114
330
10F
100
AcDbEntity
  8
F-SPKL
100
AcDbLine
 10
0.0
 20
-0.05
 30
0.0
 11
0.0
 21
0.05
 31
0.0
  0
ENDBLK
  5
111
330
10F
100
AcDbEntity
  8
0
100
AcDbBlockEnd
  0
BLOCK
  5
116
330
115
100
AcDbEntity
  8
0
100
AcDbBlockBegin
  2
TJ_DF
 70
0
 10
0.0
 20
0.0
 30
0.0
  3
TJ_DF
  1

  0
CIRCLE
  5
118
330
115
100
AcDbEntity
  8
F-DETECT
100
AcDbCircle
 10
0.0
 20
0.0
 30
0.0
 40
0.04
  0
TEXT
  5
119
330
115
100
AcDbEntity
  8
F-DETECT
100
AcDbText
 10
-0.02
 20
-0.015
 30
0.0
 40
0.03
  1
DF
100
AcDbText
  0
ENDBLK
  5
117
330
115
100
AcDbEntity
  8
0
100
AcDbBlockEnd
  0
BLOCK
  5
11B
330
11A
100
AcDbEntity
  8
0
100
AcDbBlockBegin
  2
TJ_DC
 70
0
 10
0.0
 20
0.0
 30
0.0
  3
TJ_DC
  1

  0
CIRCLE
  5
11D
330
11A
100
AcDbEntity
  8
F-DETECT
100
AcDbCircle
 10
0.0
 20
0.0
 30
0.0
 40
0.04
  0
TEXT
  5
11E
330
11A
100
AcDbEntity
  8
F-DETECT
100
AcDbText
 10
-0.02
 20
-0.015
 30
0.0
 40
0.03
  1
DC
100
AcDbText
  0
ENDBLK
  5
11C
330
11A
100
AcDbEntity
  8
0
100
AcDbBlockEnd
  0
BLOCK
  5
120
330
11F
100
AcDbEntity
  8
0
100
AcDbBlockBegin
  2
TJ_RIA
 70
0
 10
0.0
 20
0.0
 30
0.0
  3
TJ_RIA
  1

  0
CIRCLE
  5
122
330
11F
100
AcDbEntity
  8
F-SPKL
100
AcDbCircle
 10
0.0
 20
0.0
 30
0.0
 40
0.08
  0
CIRCLE
  5
123
330
11F
100
AcDbEntity
  8
F-SPKL
100
AcDbCircle
 10
0.0
 20
0.0
 30
0.0
 40
0.06
  0
TEXT
  5
124
330
11F
100
AcDbEntity
  8
F-SPKL
100
AcDbText
 10
-0.05
 20
-0.02
 30
0.0
 40
0.04
  1
RIA
100
AcDbText
  0
ENDBLK
  5
121
330
11F
100
AcDbEntity
  8
0
100
AcDbBlockEnd
  0
BLOCK
  5
126
330
125
100
AcDbEntity
  8
0
100
AcDbBlockBegin
  2
TJ_DOOR
 70
0
 10
0.0
 20
0.0
 30
0.0
  3
TJ_DOOR
  1

  0
LINE
  5
128
330
125
100
AcDbEntity
  8
A-DOOR
100
AcDbLine
 10
0.0
 20
0.0
 30
0.0
 11
0.83
 21
0.0
 31
0.0
  0
ARC
  5
129
330
125
100
AcDbEntity
  8
A-DOOR
100
AcDbCircle
 10
0.0
 20
0.0
 30
0.0
 40
0.83
100
AcDbArc
 50
0.0
 51
90.0
  0
CIRCLE
  5
12A
330
125
100
AcDbEntity
  8
A-DOOR
100
AcDbCircle
 10
0.0
 20
0.0
 30
0.0
 40
0.02
  0
ENDBLK
  5
127
330
125
100
AcDbEntity
  8
0
100
AcDbBlockEnd
  0
BLOCK
  5
12C
330
12B
100
AcDbEntity
  8
0
100
AcDbBlockBegin
  2
TJ_WINDOW
 70
0
 10
0.0
 20
0.0
 30
0.0
  3
TJ_WINDOW
  1

  0
LINE
  5
12E
330
12B
100
AcDbEntity
  8
A-GLAZ
100
AcDbLine
 10
0.0
 20
-0.03
 30
0.0
 11
1.2
 21
-0.03
 31
0.0
  0
LINE
  5
12F
330
12B
100
AcDbEntity
  8
A-GLAZ
100
AcDbLine
 10
0.0
 20
0.03
 30
0.0
 11
1.2
 21
0.03
 31
0.0
  0
LINE
  5
130
330
12B
100
AcDbEntity
  8
A-GLAZ
100
AcDbLine
 10
0.0
 20
0.0
 30
0.0
 11
1.2
 21
0.0
 31
0.0
  0
ENDBLK
  5
12D
330
12B
100
AcDbEntity
  8
0
100
AcDbBlockEnd
  0
ENDSEC
  0
SECTION
  2
ENTITIES
  0
LWPOLYLINE
  5
131
330
17
100
AcDbEntity
  8
A-WALL
100
AcDbPolyline
 90
4
 70
1
 10
0.0
 20
0.125
 10
28.0
 20
0.125
 10
28.0
 20
-0.125
 10
0.0
 20
-0.125
  0
HATCH
  5
132
330
17
100
AcDbEntity
  8
A-HATCH
 62
7
100
AcDbHatch
 10
0.0
 20
0.0
 30
0.0
210
0.0
220
0.0
230
1.0
  2
ANSI31
 70
0
 71
0
 91
1
 92
3
 72
0
 73
1
 93
5
 10
0.0
 20
0.125
 10
28.0
 20
0.125
 10
28.0
 20
-0.125
 10
0.0
 20
-0.125
 10
0.0
 20
0.125
 97
0
 75
1
 76
1
 52
0.0
 41
0.05
 77
0
 78
1
 53
45.0
 43
0.0
 44
0.0
 45
-0.1122532015
 46
0.1122532015
 79
0
 98
0
  0
LWPOLYLINE
  5
133
330
17
100
AcDbEntity
  8
A-WALL
100
AcDbPolyline
 90
4
 70
1
 10
27.875
 20
0.0
 10
27.875
 20
50.0
 10
28.125
 20
50.0
 10
28.125
 20
0.0
  0
HATCH
  5
134
330
17
100
AcDbEntity
  8
A-HATCH
 62
7
100
AcDbHatch
 10
0.0
 20
0.0
 30
0.0
210
0.0
220
0.0
230
1.0
  2
ANSI31
 70
0
 71
0
 91
1
 92
3
 72
0
 73
1
 93
5
 10
27.875
 20
0.0
 10
27.875
 20
50.0
 10
28.125
 20
50.0
 10
28.125
 20
0.0
 10
27.875
 20
0.0
 97
0
 75
1
 76
1
 52
0.0
 41
0.05
 77
0
 78
1
 53
45.0
 43
0.0
 44
0.0
 45
-0.1122532015
 46
0.1122532015
 79
0
 98
0
  0
LWPOLYLINE
  5
135
330
17
100
AcDbEntity
  8
A-WALL
100
AcDbPolyline
 90
4
 70
1
 10
28.0
 20
49.875
 10
16.0
 20
49.875
 10
16.0
 20
50.125
 10
28.0
 20
50.125
  0
HATCH
  5
136
330
17
100
AcDbEntity
  8
A-HATCH
 62
7
100
AcDbHatch
 10
0.0
 20
0.0
 30
0.0
210
0.0
220
0.0
230
1.0
  2
ANSI31
 70
0
 71
0
 91
1
 92
3
 72
0
 73
1
 93
5
 10
28.0
 20
49.875
 10
16.0
 20
49.875
 10
16.0
 20
50.125
 10
28.0
 20
50.125
 10
28.0
 20
49.875
 97
0
 75
1
 76
1
 52
0.0
 41
0.05
 77
0
 78
1
 53
45.0
 43
0.0
 44
0.0
 45
-0.1122532015
 46
0.1122532015
 79
0
 98
0
  0
LWPOLYLINE
  5
137
330
17
100
AcDbEntity
  8
A-WALL
100
AcDbPolyline
 90
4
 70
1
 10
16.10853039276556
 20
49.9379826327054
 10
0.10853039276555741
 20
21.937982632705396
 10
-0.10853039276555741
 20
22.062017367294604
 10
15.891469607234443
 20
50.0620173672946
  0
HATCH
  5
138
330
17
100
AcDbEntity
  8
A-HATCH
 62
7
100
AcDbHatch
 10
0.0
 20
0.0
 30
0.0
210
0.0
220
0.0
230
1.0
  2
ANSI31
 70
0
 71
0
 91
1
 92
3
 72
0
 73
1
 93
5
 10
16.10853039276556
 20
49.9379826327054
 10
0.10853039276555741
 20
21.937982632705396
 10
-0.10853039276555741
 20
22.062017367294604
 10
15.891469607234443
 20
50.0620173672946
 10
16.10853039276556
 20
49.9379826327054
 97
0
 75
1
 76
1
 52
0.0
 41
0.05
 77
0
 78
1
 53
45.0
 43
0.0
 44
0.0
 45
-0.1122532015
 46
0.1122532015
 79
0
 98
0
  0
LWPOLYLINE
  5
139
330
17
100
AcDbEntity
  8
A-WALL
100
AcDbPolyline
 90
4
 70
1
 10
0.125
 20
22.0
 10
0.125
 20
0.0
 10
-0.125
 20
0.0
 10
-0.125
 20
22.0
  0
HATCH
  5
13A
330
17
100
AcDbEntity
  8
A-HATCH
 62
7
100
AcDbHatch
 10
0.0
 20
0.0
 30
0.0
210
0.0
220
0.0
230
1.0
  2
ANSI31
 70
0
 71
0
 91
1
 92
3
 72
0
 73
1
 93
5
 10
0.125
 20
22.0
 10
0.125
 20
0.0
 10
-0.125
 20
0.0
 10
-0.125
 20
22.0
 10
0.125
 20
22.0
 97
0
 75
1
 76
1
 52
0.0
 41
0.05
 77
0
 78
1
 53
45.0
 43
0.0
 44
0.0
 45
-0.1122532015
 46
0.1122532015
 79
0
 98
0
  0
LWPOLYLINE
  5
13B
330
17
100
AcDbEntity
  8
A-WALL
100
AcDbPolyline
 90
4
 70
1
 10
6.9
 20
0.0
 10
6.9
 20
34.25
 10
7.1
 20
34.25
 10
7.1
 20
0.0
  0
HATCH
  5
13C
330
17
100
AcDbEntity
  8
A-HATCH
 62
7
100
AcDbHatch
 10
0.0
 20
0.0
 30
0.0
210
0.0
220
0.0
230
1.0
  2
ANSI31
 70
0
 71
0
 91
1
 92
3
 72
0
 73
1
 93
5
 10
6.9
 20
0.0
 10
6.9
 20
34.25
 10
7.1
 20
34.25
 10
7.1
 20
0.0
 10
6.9
 20
0.0
 97
0
 75
1
 76
1
 52
0.0
 41
0.05
 77
0
 78
1
 53
45.0
 43
0.0
 44
0.0
 45
-0.1122532015
 46
0.1122532015
 79
0
 98
0
  0
LWPOLYLINE
  5
13D
330
17
100
AcDbEntity
  8
A-WALL
100
AcDbPolyline
 90
4
 70
1
 10
13.9
 20
0.0
 10
13.9
 20
46.5
 10
14.1
 20
46.5
 10
14.1
 20
0.0
  0
HATCH
  5
13E
330
17
100
AcDbEntity
  8
A-HATCH
 62
7
100
AcDbHatch
 10
0.0
 20
0.0
 30
0.0
210
0.0
220
0.0
230
1.0
  2
ANSI31
 70
0
 71
0
 91
1
 92
3
 72
0
 73
1
 93
5
 10
13.9
 20
0.0
 10
13.9
 20
46.5
 10
14.1
 20
46.5
 10
14.1
 20
0.0
 10
13.9
 20
0.0
 97
0
 75
1
 76
1
 52
0.0
 41
0.05
 77
0
 78
1
 53
45.0
 43
0.0
 44
0.0
 45
-0.1122532015
 46
0.1122532015
 79
0
 98
0
  0
LWPOLYLINE
  5
13F
330
17
100
AcDbEntity
  8
A-WALL
100
AcDbPolyline
 90
4
 70
1
 10
20.9
 20
0.0
 10
20.9
 20
50.0
 10
21.1
 20
50.0
 10
21.1
 20
0.0
  0
HATCH
  5
140
330
17
100
AcDbEntity
  8
A-HATCH
 62
7
100
AcDbHatch
 10
0.0
 20
0.0
 30
0.0
210
0.0
220
0.0
230
1.0
  2
ANSI31
 70
0
 71
0
 91
1
 92
3
 72
0
 73
1
 93
5
 10
20.9
 20
0.0
 10
20.9
 20
50.0
 10
21.1
 20
50.0
 10
21.1
 20
0.0
 10
20.9
 20
0.0
 97
0
 75
1
 76
1
 52
0.0
 41
0.05
 77
0
 78
1
 53
45.0
 43
0.0
 44
0.0
 45
-0.1122532015
 46
0.1122532015
 79
0
 98
0
  0
LWPOLYLINE
  5
141
330
17
100
AcDbEntity
  8
A-WALL
100
AcDbPolyline
 90
4
 70
1
 10
0.0
 20
10.1
 10
28.0
 20
10.1
 10
28.0
 20
9.9
 10
0.0
 20
9.9
  0
HATCH
  5
142
330
17
100
AcDbEntity
  8
A-HATCH
 62
7
100
AcDbHatch
 10
0.0
 20
0.0
 30
0.0
210
0.0
220
0.0
230
1.0
  2
ANSI31
 70
0
 71
0
 91
1
 92
3
 72
0
 73
1
 93
5
 10
0.0
 20
10.1
 10
28.0
 20
10.1
 10
28.0
 20
9.9
 10
0.0
 20
9.9
 10
0.0
 20
10.1
 97
0
 75
1
 76
1
 52
0.0
 41
0.05
 77
0
 78
1
 53
45.0
 43
0.0
 44
0.0
 45
-0.1122532015
 46
0.1122532015
 79
0
 98
0
  0
LWPOLYLINE
  5
143
330
17
100
AcDbEntity
  8
A-WALL-INT
100
AcDbPolyline
 90
4
 70
1
 10
0.0
 20
22.075
 10
28.0
 20
22.075
 10
28.0
 20
21.925
 10
0.0
 20
21.925
  0
TEXT
  5
144
330
17
100
AcDbEntity
  8
A-TEXT
100
AcDbText
 10
14.0
 20
11.0
 30
0.0
 40
0.3
  1
Couloir R+2
 72
1
 11
14.0
 21
11.0
 31
0.0
100
AcDbText
 73
2
  0
TEXT
  5
145
330
17
100
AcDbEntity
  8
A-TEXT
100
AcDbText
 10
14.0
 20
10.55
 30
0.0
 40
0.2
  1
56.0 m²
 72
1
 11
14.0
 21
10.55
 31
0.0
100
AcDbText
 73
2
  0
TEXT
  5
146
330
17
100
AcDbEntity
  8
A-TEXT
100
AcDbText
 10
14.0
 20
11.0
 30
0.0
 40
0.3
  1
Escalier R+2
 72
1
 11
14.0
 21
11.0
 31
0.0
100
AcDbText
 73
2
  0
TEXT
  5
147
330
17
100
AcDbEntity
  8
A-TEXT
100
AcDbText
 10
14.0
 20
10.55
 30
0.0
 40
0.2
  1
8.0 m²
 72
1
 11
14.0
 21
10.55
 31
0.0
100
AcDbText
 73
2
  0
TEXT
  5
148
330
17
100
AcDbEntity
  8
A-TEXT
100
AcDbText
 10
2.1
 20
3.0
 30
0.0
 40
0.3
  1
Apt A R+2 — Séjour
 72
1
 11
2.1
 21
3.0
 31
0.0
100
AcDbText
 73
2
  0
TEXT
  5
149
330
17
100
AcDbEntity
  8
A-TEXT
100
AcDbText
 10
2.1
 20
2.55
 30
0.0
 40
0.2
  1
25.2 m²
 72
1
 11
2.1
 21
2.55
 31
0.0
100
AcDbText
 73
2
  0
TEXT
  5
14A
330
17
100
AcDbEntity
  8
A-TEXT
100
AcDbText
 10
2.1
 20
8.0
 30
0.0
 40
0.3
  1
Apt A R+2 — Chambre
 72
1
 11
2.1
 21
8.0
 31
0.0
100
AcDbText
 73
2
  0
TEXT
  5
14B
330
17
100
AcDbEntity
  8
A-TEXT
100
AcDbText
 10
2.1
 20
7.55
 30
0.0
 40
0.2
  1
16.8 m²
 72
1
 11
2.1
 21
7.55
 31
0.0
100
AcDbText
 73
2
  0
TEXT
  5
14C
330
17
100
AcDbEntity
  8
A-TEXT
100
AcDbText
 10
5.6
 20
2.0
 30
0.0
 40
0.3
  1
Apt A R+2 — Cuisine
 72
1
 11
5.6
 21
2.0
 31
0.0
100
AcDbText
 73
2
  0
TEXT
  5
14D
330
17
100
AcDbEntity
  8
A-TEXT
100
AcDbText
 10
5.6
 20
1.55
 30
0.0
 40
0.2
  1
11.2 m²
 72
1
 11
5.6
 21
1.55
 31
0.0
100
AcDbText
 73
2
  0
TEXT
  5
14E
330
17
100
AcDbEntity
  8
A-TEXT
100
AcDbText
 10
5.6
 20
5.5
 30
0.0
 40
0.3
  1
Apt A R+2 — SDB
 72
1
 11
5.6
 21
5.5
 31
0.0
100
AcDbText
 73
2
  0
TEXT
  5
14F
330
17
100
AcDbEntity
  8
A-TEXT
100
AcDbText
 10
5.6
 20
5.05
 30
0.0
 40
0.2
  1
8.4 m²
 72
1
 11
5.6
 21
5.05
 31
0.0
100
AcDbText
 73
2
  0
TEXT
  5
150
330
17
100
AcDbEntity
  8
A-TEXT
100
AcDbText
 10
5.6
 20
8.5
 30
0.0
 40
0.3
  1
Apt A R+2 — WC
 72
1
 11
5.6
 21
8.5
 31
0.0
100
AcDbText
 73
2
  0
TEXT
  5
151
330
17
100
AcDbEntity
  8
A-TEXT
100
AcDbText
 10
5.6
 20
8.05
 30
0.0
 40
0.2
  1
8.4 m²
 72
1
 11
5.6
 21
8.05
 31
0.0
100
AcDbText
 73
2
  0
TEXT
  5
152
330
17
100
AcDbEntity
  8
A-TEXT
100
AcDbText
 10
9.1
 20
3.0
 30
0.0
 40
0.3
  1
Apt B R+2 — Séjour
 72
1
 11
9.1
 21
3.0
 31
0.0
100
AcDbText
 73
2
  0
TEXT
  5
153
330
17
100
AcDbEntity
  8
A-TEXT
100
AcDbText
 10
9.1
 20
2.55
 30
0.0
 40
0.2
  1
25.2 m²
 72
1
 11
9.1
 21
2.55
 31
0.0
100
AcDbText
 73
2
  0
TEXT
  5
154
330
17
100
AcDbEntity
  8
A-TEXT
100
AcDbText
 10
9.1
 20
8.0
 30
0.0
 40
0.3
  1
Apt B R+2 — Chambre
 72
1
 11
9.1
 21
8.0
 31
0.0
100
AcDbText
 73
2
  0
TEXT
  5
155
330
17
100
AcDbEntity
  8
A-TEXT
100
AcDbText
 10
9.1
 20
7.55
 30
0.0
 40
0.2
  1
16.8 m²
 72
1
 11
9.1
 21
7.55
 31
0.0
100
AcDbText
 73
2
  0
TEXT
  5
156
330
17
100
AcDbEntity
  8
A-TEXT
100
AcDbText
 10
12.600000000000001
 20
2.0
 30
0.0
 40
0.3
  1
Apt B R+2 — Cuisine
 72
1
 11
12.600000000000001
 21
2.0
 31
0.0
100
AcDbText
 73
2
  0
TEXT
  5
157
330
17
100
AcDbEntity
  8
A-TEXT
100
AcDbText
 10
12.600000000000001
 20
1.55
 30
0.0
 40
0.2
  1
11.2 m²
 72
1
 11
12.600000000000001
 21
1.55
 31
0.0
100
AcDbText
 73
2
  0
TEXT
  5
158
330
17
100
AcDbEntity
  8
A-TEXT
100
AcDbText
 10
12.600000000000001
 20
5.5
 30
0.0
 40
0.3
  1
Apt B R+2 — SDB
 72
1
 11
12.600000000000001
 21
5.5
 31
0.0
100
AcDbText
 73
2
  0
TEXT
  5
159
330
17
100
AcDbEntity
  8
A-TEXT
100
AcDbText
 10
12.600000000000001
 20
5.05
 30
0.0
 40
0.2
  1
8.4 m²
 72
1
 11
12.600000000000001
 21
5.05
 31
0.0
100
AcDbText
 73
2
  0
TEXT
  5
15A
330
17
100
AcDbEntity
  8
A-TEXT
100
AcDbText
 10
12.600000000000001
 20
8.5
 30
0.0
 40
0.3
  1
Apt B R+2 — WC
 72
1
 11
12.600000000000001
 21
8.5
 31
0.0
100
AcDbText
 73
2
  0
TEXT
  5
15B
330
17
100
AcDbEntity
  8
A-TEXT
100
AcDbText
 10
12.600000000000001
 20
8.05
 30
0.0
 40
0.2
  1
8.4 m²
 72
1
 11
12.600000000000001
 21
8.05
 31
0.0
100
AcDbText
 73
2
  0
TEXT
  5
15C
330
17
100
AcDbEntity
  8
A-TEXT
100
AcDbText
 10
16.1
 20
3.0
 30
0.0
 40
0.3
  1
Apt C R+2 — Séjour
 72
1
 11
16.1
 21
3.0
 31
0.0
100
AcDbText
 73
2
  0
TEXT
  5
15D
330
17
100
AcDbEntity
  8
A-TEXT
100
AcDbText
 10
16.1
 20
2.55
 30
0.0
 40
0.2
  1
25.2 m²
 72
1
 11
16.1
 21
2.55
 31
0.0
100
AcDbText
 73
2
  0
TEXT
  5
15E
330
17
100
AcDbEntity
  8
A-TEXT
100
AcDbText
 10
16.1
 20
8.0
 30
0.0
 40
0.3
  1
Apt C R+2 — Chambre
 72
1
 11
16.1
 21
8.0
 31
0.0
100
AcDbText
 73
2
  0
TEXT
  5
15F
330
17
100
AcDbEntity
  8
A-TEXT
100
AcDbText
 10
16.1
 20
7.55
 30
0.0
 40
0.2
  1
16.8 m²
 72
1
 11
16.1
 21
7.55
 31
0.0
100
AcDbText
 73
2
  0
TEXT
  5
160
330
17
100
AcDbEntity
  8
A-TEXT
100
AcDbText
 10
19.6
 20
2.0
 30
0.0
 40
0.3
  1
Apt C R+2 — Cuisine
 72
1
 11
19.6
 21
2.0
 31
0.0
100
AcDbText
 73
2
  0
TEXT
  5
161
330
17
100
AcDbEntity
  8
A-TEXT
100
AcDbText
 10
19.6
 20
1.55
 30
0.0
 40
0.2
  1
11.2 m²
 72
1
 11
19.6
 21
1.55
 31
0.0
100
AcDbText
 73
2
  0
TEXT
  5
162
330
17
100
AcDbEntity
  8
A-TEXT
100
AcDbText
 10
19.6
 20
5.5
 30
0.0
 40
0.3
  1
Apt C R+2 — SDB
 72
1
 11
19.6
 21
5.5
 31
0.0
100
AcDbText
 73
2
  0
TEXT
  5
163
330
17
100
AcDbEntity
  8
A-TEXT
100
AcDbText
 10
19.6
 20
5.05
 30
0.0
 40
0.2
  1
8.4 m²
 72
1
 11
19.6
 21
5.05
 31
0.0
100
AcDbText
 73
2
  0
TEXT
  5
164
330
17
100
AcDbEntity
  8
A-TEXT
100
AcDbText
 10
19.6
 20
8.5
 30
0.0
 40
0.3
  1
Apt C R+2 — WC
 72
1
 11
19.6
 21
8.5
 31
0.0
100
AcDbText
 73
2
  0
TEXT
  5
165
330
17
100
AcDbEntity
  8
A-TEXT
100
AcDbText
 10
19.6
 20
8.05
 30
0.0
 40
0.2
  1
8.4 m²
 72
1
 11
19.6
 21
8.05
 31
0.0
100
AcDbText
 73
2
  0
TEXT
  5
166
330
17
100
AcDbEntity
  8
A-TEXT
100
AcDbText
 10
23.1
 20
3.0
 30
0.0
 40
0.3
  1
Apt D R+2 — Séjour
 72
1
 11
23.1
 21
3.0
 31
0.0
100
AcDbText
 73
2
  0
TEXT
  5
167
330
17
100
AcDbEntity
  8
A-TEXT
100
AcDbText
 10
23.1
 20
2.55
 30
0.0
 40
0.2
  1
25.2 m²
 72
1
 11
23.1
 21
2.55
 31
0.0
100
AcDbText
 73
2
  0
TEXT
  5
168
330
17
100
AcDbEntity
  8
A-TEXT
100
AcDbText
 10
23.1
 20
8.0
 30
0.0
 40
0.3
  1
Apt D R+2 — Chambre
 72
1
 11
23.1
 21
8.0
 31
0.0
100
AcDbText
 73
2
  0
TEXT
  5
169
330
17
100
AcDbEntity
  8
A-TEXT
100
AcDbText
 10
23.1
 20
7.55
 30
0.0
 40
0.2
  1
16.8 m²
 72
1
 11
23.1
 21
7.55
 31
0.0
100
AcDbText
 73
2
  0
TEXT
  5
16A
330
17
100
AcDbEntity
  8
A-TEXT
100
AcDbText
 10
26.6
 20
2.0
 30
0.0
 40
0.3
  1
Apt D R+2 — Cuisine
 72
1
 11
26.6
 21
2.0
 31
0.0
100
AcDbText
 73
2
  0
TEXT
  5
16B
330
17
100
AcDbEntity
  8
A-TEXT
100
AcDbText
 10
26.6
 20
1.55
 30
0.0
 40
0.2
  1
11.2 m²
 72
1
 11
26.6
 21
1.55
 31
0.0
100
AcDbText
 73
2
  0
TEXT
  5
16C
330
17
100
AcDbEntity
  8
A-TEXT
100
AcDbText
 10
26.6
 20
5.5
 30
0.0
 40
0.3
  1
Apt D R+2 — SDB
 72
1
 11
26.6
 21
5.5
 31
0.0
100
AcDbText
 73
2
  0
TEXT
  5
16D
330
17
100
AcDbEntity
  8
A-TEXT
100
AcDbText
 10
26.6
 20
5.05
 30
0.0
 40
0.2
  1
8.4 m²
 72
1
 11
26.6
 21
5.05
 31
0.0
100
AcDbText
 73
2
  0
TEXT
  5
16E
330
17
100
AcDbEntity
  8
A-TEXT
100
AcDbText
 10
26.6
 20
8.5
 30
0.0
 40
0.3
  1
Apt D R+2 — WC
 72
1
 11
26.6
 21
8.5
 31
0.0
100
AcDbText
 73
2
  0
TEXT
  5
16F
330
17
100
AcDbEntity
  8
A-TEXT
100
AcDbText
 10
26.6
 20
8.05
 30
0.0
 40
0.2
  1
8.4 m²
 72
1
 11
26.6
 21
8.05
 31
0.0
100
AcDbText
 73
2
  0
TEXT
  5
170
330
17
100
AcDbEntity
  8
A-TEXT
100
AcDbText
 10
3.5
 20
17.0
 30
0.0
 40
0.3
  1
Studio E R+2 — Séjour
 72
1
 11
3.5
 21
17.0
 31
0.0
100
AcDbText
 73
2
  0
TEXT
  5
171
330
17
100
AcDbEntity
  8
A-TEXT
100
AcDbText
 10
3.5
 20
16.55
 30
0.0
 40
0.2
  1
70.0 m²
 72
1
 11
3.5
 21
16.55
 31
0.0
100
AcDbText
 73
2
  0
TEXT
  5
172
330
17
100
AcDbEntity
  8
A-TEXT
100
AcDbText
 10
10.5
 20
14.5
 30
0.0
 40
0.3
  1
Studio E R+2 — Cuisine
 72
1
 11
10.5
 21
14.5
 31
0.0
100
AcDbText
 73
2
  0
TEXT
  5
173
330
17
100
AcDbEntity
  8
A-TEXT
100
AcDbText
 10
10.5
 20
14.05
 30
0.0
 40
0.2
  1
35.0 m²
 72
1
 11
10.5
 21
14.05
 31
0.0
100
AcDbText
 73
2
  0
TEXT
  5
174
330
17
100
AcDbEntity
  8
A-TEXT
100
AcDbText
 10
10.5
 20
19.5
 30
0.0
 40
0.3
  1
Studio E R+2 — SDB
 72
1
 11
10.5
 21
19.5
 31
0.0
100
AcDbText
 73
2
  0
TEXT
  5
175
330
17
100
AcDbEntity
  8
A-TEXT
100
AcDbText
 10
10.5
 20
19.05
 30
0.0
 40
0.2
  1
35.0 m²
 72
1
 11
10.5
 21
19.05
 31
0.0
100
AcDbText
 73
2
  0
TEXT
  5
176
330
17
100
AcDbEntity
  8
A-TEXT
100
AcDbText
 10
17.5
 20
17.0
 30
0.0
 40
0.3
  1
Studio F R+2 — Séjour
 72
1
 11
17.5
 21
17.0
 31
0.0
100
AcDbText
 73
2
  0
TEXT
  5
177
330
17
100
AcDbEntity
  8
A-TEXT
100
AcDbText
 10
17.5
 20
16.55
 30
0.0
 40
0.2
  1
70.0 m²
 72
1
 11
17.5
 21
16.55
 31
0.0
100
AcDbText
 73
2
  0
TEXT
  5
178
330
17
100
AcDbEntity
  8
A-TEXT
100
AcDbText
 10
24.5
 20
14.5
 30
0.0
 40
0.3
  1
Studio F R+2 — Cuisine
 72
1
 11
24.5
 21
14.5
 31
0.0
100
AcDbText
 73
2
  0
TEXT
  5
179
330
17
100
AcDbEntity
  8
A-TEXT
100
AcDbText
 10
24.5
 20
14.05
 30
0.0
 40
0.2
  1
35.0 m²
 72
1
 11
24.5
 21
14.05
 31
0.0
100
AcDbText
 73
2
  0
TEXT
  5
17A
330
17
100
AcDbEntity
  8
A-TEXT
100
AcDbText
 10
24.5
 20
19.5
 30
0.0
 40
0.3
  1
Studio F R+2 — SDB
 72
1
 11
24.5
 21
19.5
 31
0.0
100
AcDbText
 73
2
  0
TEXT
  5
17B
330
17
100
AcDbEntity
  8
A-TEXT
100
AcDbText
 10
24.5
 20
19.05
 30
0.0
 40
0.2
  1
35.0 m²
 72
1
 11
24.5
 21
19.05
 31
0.0
100
AcDbText
 73
2
  0
LINE
  5
17C
330
17
100
AcDbEntity
  8
S-GRID
  6
CENTER
100
AcDbLine
 10
0.0
 20
-2.0
 30
0.0
 11
0.0
 21
52.0
 31
0.0
  0
CIRCLE
  5
17D
330
17
100
AcDbEntity
  8
S-GRID
100
AcDbCircle
 10
0.0
 20
-2.5
 30
0.0
 40
0.5
  0
TEXT
  5
17E
330
17
100
AcDbEntity
  8
S-GRID
100
AcDbText
 10
0.0
 20
-2.5
 30
0.0
 40
0.25
  1
1
 72
1
 11
0.0
 21
-2.5
 31
0.0
100
AcDbText
 73
2
  0
LINE
  5
17F
330
17
100
AcDbEntity
  8
S-GRID
  6
CENTER
100
AcDbLine
 10
7.0
 20
-2.0
 30
0.0
 11
7.0
 21
52.0
 31
0.0
  0
CIRCLE
  5
180
330
17
100
AcDbEntity
  8
S-GRID
100
AcDbCircle
 10
7.0
 20
-2.5
 30
0.0
 40
0.5
  0
TEXT
  5
181
330
17
100
AcDbEntity
  8
S-GRID
100
AcDbText
 10
7.0
 20
-2.5
 30
0.0
 40
0.25
  1
2
 72
1
 11
7.0
 21
-2.5
 31
0.0
100
AcDbText
 73
2
  0
LINE
  5
182
330
17
100
AcDbEntity
  8
S-GRID
  6
CENTER
100
AcDbLine
 10
14.0
 20
-2.0
 30
0.0
 11
14.0
 21
52.0
 31
0.0
  0
CIRCLE
  5
183
330
17
100
AcDbEntity
  8
S-GRID
100
AcDbCircle
 10
14.0
 20
-2.5
 30
0.0
 40
0.5
  0
TEXT
  5
184
330
17
100
AcDbEntity
  8
S-GRID
100
AcDbText
 10
14.0
 20
-2.5
 30
0.0
 40
0.25
  1
3
 72
1
 11
14.0
 21
-2.5
 31
0.0
100
AcDbText
 73
2
  0
LINE
  5
185
330
17
100
AcDbEntity
  8
S-GRID
  6
CENTER
100
AcDbLine
 10
21.0
 20
-2.0
 30
0.0
 11
21.0
 21
52.0
 31
0.0
  0
CIRCLE
  5
186
330
17
100
AcDbEntity
  8
S-GRID
100
AcDbCircle
 10
21.0
 20
-2.5
 30
0.0
 40
0.5
  0
TEXT
  5
187
330
17
100
AcDbEntity
  8
S-GRID
100
AcDbText
 10
21.0
 20
-2.5
 30
0.0
 40
0.25
  1
4
 72
1
 11
21.0
 21
-2.5
 31
0.0
100
AcDbText
 73
2
  0
LINE
  5
188
330
17
100
AcDbEntity
  8
S-GRID
  6
CENTER
100
AcDbLine
 10
28.0
 20
-2.0
 30
0.0
 11
28.0
 21
52.0
 31
0.0
  0
CIRCLE
  5
189
330
17
100
AcDbEntity
  8
S-GRID
100
AcDbCircle
 10
28.0
 20
-2.5
 30
0.0
 40
0.5
  0
TEXT
  5
18A
330
17
100
AcDbEntity
  8
S-GRID
100
AcDbText
 10
28.0
 20
-2.5
 30
0.0
 40
0.25
  1
5
 72
1
 11
28.0
 21
-2.5
 31
0.0
100
AcDbText
 73
2
  0
LINE
  5
18B
330
17
100
AcDbEntity
  8
S-GRID
  6
CENTER
100
AcDbLine
 10
-2.0
 20
0.0
 30
0.0
 11
30.0
 21
0.0
 31
0.0
  0
CIRCLE
  5
18C
330
17
100
AcDbEntity
  8
S-GRID
100
AcDbCircle
 10
-2.5
 20
0.0
 30
0.0
 40
0.5
  0
TEXT
  5
18D
330
17
100
AcDbEntity
  8
S-GRID
100
AcDbText
 10
-2.5
 20
0.0
 30
0.0
 40
0.25
  1
A
 72
1
 11
-2.5
 21
0.0
 31
0.0
100
AcDbText
 73
2
  0
LINE
  5
18E
330
17
100
AcDbEntity
  8
S-GRID
  6
CENTER
100
AcDbLine
 10
-2.0
 20
10.0
 30
0.0
 11
30.0
 21
10.0
 31
0.0
  0
CIRCLE
  5
18F
330
17
100
AcDbEntity
  8
S-GRID
100
AcDbCircle
 10
-2.5
 20
10.0
 30
0.0
 40
0.5
  0
TEXT
  5
190
330
17
100
AcDbEntity
  8
S-GRID
100
AcDbText
 10
-2.5
 20
10.0
 30
0.0
 40
0.25
  1
B
 72
1
 11
-2.5
 21
10.0
 31
0.0
100
AcDbText
 73
2
  0
LINE
  5
191
330
17
100
AcDbEntity
  8
S-GRID
  6
CENTER
100
AcDbLine
 10
-2.0
 20
22.0
 30
0.0
 11
30.0
 21
22.0
 31
0.0
  0
CIRCLE
  5
192
330
17
100
AcDbEntity
  8
S-GRID
100
AcDbCircle
 10
-2.5
 20
22.0
 30
0.0
 40
0.5
  0
TEXT
  5
193
330
17
100
AcDbEntity
  8
S-GRID
100
AcDbText
 10
-2.5
 20
22.0
 30
0.0
 40
0.25
  1
C
 72
1
 11
-2.5
 21
22.0
 31
0.0
100
AcDbText
 73
2
  0
LINE
  5
194
330
17
100
AcDbEntity
  8
S-GRID
  6
CENTER
100
AcDbLine
 10
-2.0
 20
50.0
 30
0.0
 11
30.0
 21
50.0
 31
0.0
  0
CIRCLE
  5
195
330
17
100
AcDbEntity
  8
S-GRID
100
AcDbCircle
 10
-2.5
 20
50.0
 30
0.0
 40
0.5
  0
TEXT
  5
196
330
17
100
AcDbEntity
  8
S-GRID
100
AcDbText
 10
-2.5
 20
50.0
 30
0.0
 40
0.25
  1
D
 72
1
 11
-2.5
 21
50.0
 31
0.0
100
AcDbText
 73
2
  0
INSERT
  5
197
330
17
100
AcDbEntity
  8
M-EQUIP
100
AcDbBlockReference
  2
TJ_SPLIT
 10
1.125
 20
5.95
 30
0.0
  0
INSERT
  5
199
330
17
100
AcDbEntity
  8
M-EQUIP
100
AcDbBlockReference
  2
TJ_SPLIT
 10
4.15
 20
8.925
 30
0.0
  0
INSERT
  5
19B
330
17
100
AcDbEntity
  8
M-EQUIP
100
AcDbBlockReference
  2
TJ_SPLIT
 10
6.225
 20
0.05
 30
0.0
  0
INSERT
  5
19D
330
17
100
AcDbEntity
  8
M-EQUIP
100
AcDbBlockReference
  2
TJ_SPLIT
 10
8.125
 20
5.95
 30
0.0
  0
INSERT
  5
19F
330
17
100
AcDbEntity
  8
M-EQUIP
100
AcDbBlockReference
  2
TJ_SPLIT
 10
11.149999999999999
 20
8.925
 30
0.0
  0
INSERT
  5
1A1
330
17
100
AcDbEntity
  8
M-EQUIP
100
AcDbBlockReference
  2
TJ_SPLIT
 10
13.225
 20
0.05
 30
0.0
  0
INSERT
  5
1A3
330
17
100
AcDbEntity
  8
M-EQUIP
100
AcDbBlockReference
  2
TJ_SPLIT
 10
15.125
 20
5.95
 30
0.0
  0
INSERT
  5
1A5
330
17
100
AcDbEntity
  8
M-EQUIP
100
AcDbBlockReference
  2
TJ_SPLIT
 10
18.15
 20
8.925
 30
0.0
  0
INSERT
  5
1A7
330
17
100
AcDbEntity
  8
M-EQUIP
100
AcDbBlockReference
  2
TJ_SPLIT
 10
20.225
 20
0.05
 30
0.0
  0
INSERT
  5
1A9
330
17
100
AcDbEntity
  8
M-EQUIP
100
AcDbBlockReference
  2
TJ_SPLIT
 10
22.125
 20
5.95
 30
0.0
  0
INSERT
  5
1AB
330
17
100
AcDbEntity
  8
M-EQUIP
100
AcDbBlockReference
  2
TJ_SPLIT
 10
25.15
 20
8.925
 30
0.0
  0
INSERT
  5
1AD
330
17
100
AcDbEntity
  8
M-EQUIP
100
AcDbBlockReference
  2
TJ_SPLIT
 10
27.225
 20
0.05
 30
0.0
  0
INSERT
  5
1AF
330
17
100
AcDbEntity
  8
M-EQUIP
100
AcDbBlockReference
  2
TJ_SPLIT
 10
6.95
 20
13.3625
 30
0.0
  0
INSERT
  5
1B1
330
17
100
AcDbEntity
  8
M-EQUIP
100
AcDbBlockReference
  2
TJ_SPLIT
 10
13.95
 20
15.675
 30
0.0
  0
INSERT
  5
1B3
330
17
100
AcDbEntity
  8
M-EQUIP
100
AcDbBlockReference
  2
TJ_SPLIT
 10
15.825
 20
21.95
 30
0.0
  0
INSERT
  5
1B5
330
17
100
AcDbEntity
  8
M-EQUIP
100
AcDbBlockReference
  2
TJ_SPLIT
 10
27.95
 20
15.675
 30
0.0
  0
LINE
  5
1B7
330
17
100
AcDbEntity
  8
M-EQUIP
 62
2
370
25
100
AcDbLine
 10
28.5
 20
11.0
 30
0.0
 11
1.125
 21
5.95
 31
0.0
  0
LINE
  5
1B8
330
17
100
AcDbEntity
  8
M-EQUIP
 62
2
370
25
100
AcDbLine
 10
1.125
 20
5.95
 30
0.0
 11
28.5
 21
11.0
 31
0.0
  0
LINE
  5
1B9
330
17
100
AcDbEntity
  8
M-EQUIP
 62
4
370
25
100
AcDbLine
 10
1.125
 20
5.95
 30
0.0
 11
1.125
 21
5.95
 31
0.0
  0
TEXT
  5
1BA
330
17
100
AcDbEntity
  8
M-EQUIP
100
AcDbText
 10
1.125
 20
6.03
 30
0.0
 40
0.1
  1
Ø32
100
AcDbText
  0
LINE
  5
1BB
330
17
100
AcDbEntity
  8
M-DUCT
 62
30
370
35
100
AcDbLine
 10
14.0
 20
9.9
 30
0.0
 11
2.1
 21
3.0
 31
0.0
  0
TEXT
  5
1BC
330
17
100
AcDbEntity
  8
M-DUCT
100
AcDbText
 10
8.05
 20
6.53
 30
0.0
 40
0.1
  1
Ø200
100
AcDbText
  0
LINE
  5
1BD
330
17
100
AcDbEntity
  8
M-EQUIP
 62
2
370
25
100
AcDbLine
 10
28.5
 20
11.0
 30
0.0
 11
4.15
 21
8.925
 31
0.0
  0
LINE
  5
1BE
330
17
100
AcDbEntity
  8
M-EQUIP
 62
2
370
25
100
AcDbLine
 10
4.15
 20
8.925
 30
0.0
 11
28.5
 21
11.0
 31
0.0
  0
LINE
  5
1BF
330
17
100
AcDbEntity
  8
M-EQUIP
 62
4
370
25
100
AcDbLine
 10
4.15
 20
8.925
 30
0.0
 11
4.15
 21
8.925
 31
0.0
  0
TEXT
  5
1C0
330
17
100
AcDbEntity
  8
M-EQUIP
100
AcDbText
 10
4.15
 20
9.005
 30
0.0
 40
0.1
  1
Ø32
100
AcDbText
  0
LINE
  5
1C1
330
17
100
AcDbEntity
  8
M-DUCT
 62
30
370
35
100
AcDbLine
 10
14.0
 20
9.9
 30
0.0
 11
2.1
 21
8.0
 31
0.0
  0
TEXT
  5
1C2
330
17
100
AcDbEntity
  8
M-DUCT
100
AcDbText
 10
8.05
 20
9.03
 30
0.0
 40
0.1
  1
Ø200
100
AcDbText
  0
LINE
  5
1C3
330
17
100
AcDbEntity
  8
M-EQUIP
 62
2
370
25
100
AcDbLine
 10
28.5
 20
11.0
 30
0.0
 11
6.225
 21
0.05
 31
0.0
  0
LINE
  5
1C4
330
17
100
AcDbEntity
  8
M-EQUIP
 62
2
370
25
100
AcDbLine
 10
6.225
 20
0.05
 30
0.0
 11
28.5
 21
11.0
 31
0.0
  0
LINE
  5
1C5
330
17
100
AcDbEntity
  8
M-EQUIP
 62
4
370
25
100
AcDbLine
 10
6.225
 20
0.05
 30
0.0
 11
6.225
 21
0.05
 31
0.0
  0
TEXT
  5
1C6
330
17
100
AcDbEntity
  8
M-EQUIP
100
AcDbText
 10
6.225
 20
0.13
 30
0.0
 40
0.1
  1
Ø32
100
AcDbText
  0
LINE
  5
1C7
330
17
100
AcDbEntity
  8
M-EQUIP
 62
2
370
25
100
AcDbLine
 10
28.5
 20
11.0
 30
0.0
 11
8.125
 21
5.95
 31
0.0
  0
LINE
  5
1C8
330
17
100
AcDbEntity
  8
M-EQUIP
 62
2
370
25
100
AcDbLine
 10
8.125
 20
5.95
 30
0.0
 11
28.5
 21
11.0
 31
0.0
  0
LINE
  5
1C9
330
17
100
AcDbEntity
  8
M-EQUIP
 62
4
370
25
100
AcDbLine
 10
8.125
 20
5.95
 30
0.0
 11
8.125
 21
5.95
 31
0.0
  0
TEXT
  5
1CA
330
17
100
AcDbEntity
  8
M-EQUIP
100
AcDbText
 10
8.125
 20
6.03
 30
0.0
 40
0.1
  1
Ø32
100
AcDbText
  0
LINE
  5
1CB
330
17
100
AcDbEntity
  8
M-DUCT
 62
30
370
35
100
AcDbLine
 10
14.0
 20
9.9
 30
0.0
 11
9.1
 21
3.0
 31
0.0
  0
TEXT
  5
1CC
330
17
100
AcDbEntity
  8
M-DUCT
100
AcDbText
 10
11.55
 20
6.53
 30
0.0
 40
0.1
  1
Ø200
100
AcDbText
  0
LINE
  5
1CD
330
17
100
AcDbEntity
  8
M-EQUIP
 62
2
370
25
100
AcDbLine
 10
28.5
 20
11.0
 30
0.0
 11
11.149999999999999
 21
8.925
 31
0.0
  0
LINE
  5
1CE
330
17
100
AcDbEntity
  8
M-EQUIP
 62
2
370
25
100
AcDbLine
 10
11.149999999999999
 20
8.925
 30
0.0
 11
28.5
 21
11.0
 31
0.0
  0
LINE
  5
1CF
330
17
100
AcDbEntity
  8
M-EQUIP
 62
4
370
25
100
AcDbLine
 10
11.149999999999999
 20
8.925
 30
0.0
 11
11.149999999999999
 21
8.925
 31
0.0
  0
TEXT
  5
1D0
330
17
100
AcDbEntity
  8
M-EQUIP
100
AcDbText
 10
11.149999999999999
 20
9.005
 30
0.0
 40
0.1
  1
Ø32
100
AcDbText
  0
LINE
  5
1D1
330
17
100
AcDbEntity
  8
M-DUCT
 62
30
370
35
100
AcDbLine
 10
14.0
 20
9.9
 30
0.0
 11
9.1
 21
8.0
 31
0.0
  0
TEXT
  5
1D2
330
17
100
AcDbEntity
  8
M-DUCT
100
AcDbText
 10
11.55
 20
9.03
 30
0.0
 40
0.1
  1
Ø200
100
AcDbText
  0
LINE
  5
1D3
330
17
100
AcDbEntity
  8
M-EQUIP
 62
2
370
25
100
AcDbLine
 10
28.5
 20
11.0
 30
0.0
 11
13.225
 21
0.05
 31
0.0
  0
LINE
  5
1D4
330
17
100
AcDbEntity
  8
M-EQUIP
 62
2
370
25
100
AcDbLine
 10
13.225
 20
0.05
 30
0.0
 11
28.5
 21
11.0
 31
0.0
  0
LINE
  5
1D5
330
17
100
AcDbEntity
  8
M-EQUIP
 62
4
370
25
100
AcDbLine
 10
13.225
 20
0.05
 30
0.0
 11
13.225
 21
0.05
 31
0.0
  0
TEXT
  5
1D6
330
17
100
AcDbEntity
  8
M-EQUIP
100
AcDbText
 10
13.225
 20
0.13
 30
0.0
 40
0.1
  1
Ø32
100
AcDbText
  0
LINE
  5
1D7
330
17
100
AcDbEntity
  8
M-EQUIP
 62
2
370
25
100
AcDbLine
 10
28.5
 20
11.0
 30
0.0
 11
15.125
 21
5.95
 31
0.0
  0
LINE
  5
1D8
330
17
100
AcDbEntity
  8
M-EQUIP
 62
2
370
25
100
AcDbLine
 10
15.125
 20
5.95
 30
0.0
 11
28.5
 21
11.0
 31
0.0
  0
LINE
  5
1D9
330
17
100
AcDbEntity
  8
M-EQUIP
 62
4
370
25
100
AcDbLine
 10
15.125
 20
5.95
 30
0.0
 11
15.125
 21
5.95
 31
0.0
  0
TEXT
  5
1DA
330
17
100
AcDbEntity
  8
M-EQUIP
100
AcDbText
 10
15.125
 20
6.03
 30
0.0
 40
0.1
  1
Ø32
100
AcDbText
  0
LINE
  5
1DB
330
17
100
AcDbEntity
  8
M-DUCT
 62
30
370
35
100
AcDbLine
 10
14.0
 20
9.9
 30
0.0
 11
16.1
 21
3.0
 31
0.0
  0
TEXT
  5
1DC
330
17
100
AcDbEntity
  8
M-DUCT
100
AcDbText
 10
15.05
 20
6.53
 30
0.0
 40
0.1
  1
Ø200
100
AcDbText
  0
LINE
  5
1DD
330
17
100
AcDbEntity
  8
M-EQUIP
 62
2
370
25
100
AcDbLine
 10
28.5
 20
11.0
 30
0.0
 11
18.15
 21
8.925
 31
0.0
  0
LINE
  5
1DE
330
17
100
AcDbEntity
  8
M-EQUIP
 62
2
370
25
100
AcDbLine
 10
18.15
 20
8.925
 30
0.0
 11
28.5
 21
11.0
 31
0.0
  0
LINE
  5
1DF
330
17
100
AcDbEntity
  8
M-EQUIP
 62
4
370
25
100
AcDbLine
 10
18.15
 20
8.925
 30
0.0
 11
18.15
 21
8.925
 31
0.0
  0
TEXT
  5
1E0
330
17
100
AcDbEntity
  8
M-EQUIP
100
AcDbText
 10
18.15
 20
9.005
 30
0.0
 40
0.1
  1
Ø32
100
AcDbText
  0
LINE
  5
1E1
330
17
100
AcDbEntity
  8
M-DUCT
 62
30
370
35
100
AcDbLine
 10
14.0
 20
9.9
 30
0.0
 11
16.1
 21
8.0
 31
0.0
  0
TEXT
  5
1E2
330
17
100
AcDbEntity
  8
M-DUCT
100
AcDbText
 10
15.05
 20
9.03
 30
0.0
 40
0.1
  1
Ø200
100
AcDbText
  0
LINE
  5
1E3
330
17
100
AcDbEntity
  8
M-EQUIP
 62
2
370
25
100
AcDbLine
 10
28.5
 20
11.0
 30
0.0
 11
20.225
 21
0.05
 31
0.0
  0
LINE
  5
1E4
330
17
100
AcDbEntity
  8
M-EQUIP
 62
2
370
25
100
AcDbLine
 10
20.225
 20
0.05
 30
0.0
 11
28.5
 21
11.0
 31
0.0
  0
LINE
  5
1E5
330
17
100
AcDbEntity
  8
M-EQUIP
 62
4
370
25
100
AcDbLine
 10
20.225
 20
0.05
 30
0.0
 11
20.225
 21
0.05
 31
0.0
  0
TEXT
  5
1E6
330
17
100
AcDbEntity
  8
M-EQUIP
100
AcDbText
 10
20.225
 20
0.13
 30
0.0
 40
0.1
  1
Ø32
100
AcDbText
  0
LINE
  5
1E7
330
17
100
AcDbEntity
  8
M-EQUIP
 62
2
370
25
100
AcDbLine
 10
28.5
 20
11.0
 30
0.0
 11
22.125
 21
5.95
 31
0.0
  0
LINE
  5
1E8
330
17
100
AcDbEntity
  8
M-EQUIP
 62
2
370
25
100
AcDbLine
 10
22.125
 20
5.95
 30
0.0
 11
28.5
 21
11.0
 31
0.0
  0
LINE
  5
1E9
330
17
100
AcDbEntity
  8
M-EQUIP
 62
4
370
25
100
AcDbLine
 10
22.125
 20
5.95
 30
0.0
 11
22.125
 21
5.95
 31
0.0
  0
TEXT
  5
1EA
330
17
100
AcDbEntity
  8
M-EQUIP
100
AcDbText
 10
22.125
 20
6.03
 30
0.0
 40
0.1
  1
Ø32
100
AcDbText
  0
LINE
  5
1EB
330
17
100
AcDbEntity
  8
M-DUCT
 62
30
370
35
100
AcDbLine
 10
14.0
 20
9.9
 30
0.0
 11
23.1
 21
3.0
 31
0.0
  0
TEXT
  5
1EC
330
17
100
AcDbEntity
  8
M-DUCT
100
AcDbText
 10
18.55
 20
6.53
 30
0.0
 40
0.1
  1
Ø200
100
AcDbText
  0
LINE
  5
1ED
330
17
100
AcDbEntity
  8
M-EQUIP
 62
2
370
25
100
AcDbLine
 10
28.5
 20
11.0
 30
0.0
 11
25.15
 21
8.925
 31
0.0
  0
LINE
  5
1EE
330
17
100
AcDbEntity
  8
M-EQUIP
 62
2
370
25
100
AcDbLine
 10
25.15
 20
8.925
 30
0.0
 11
28.5
 21
11.0
 31
0.0
  0
LINE
  5
1EF
330
17
100
AcDbEntity
  8
M-EQUIP
 62
4
370
25
100
AcDbLine
 10
25.15
 20
8.925
 30
0.0
 11
25.15
 21
8.925
 31
0.0
  0
TEXT
  5
1F0
330
17
100
AcDbEntity
  8
M-EQUIP
100
AcDbText
 10
25.15
 20
9.005
 30
0.0
 40
0.1
  1
Ø32
100
AcDbText
  0
LINE
  5
1F1
330
17
100
AcDbEntity
  8
M-DUCT
 62
30
370
35
100
AcDbLine
 10
14.0
 20
9.9
 30
0.0
 11
23.1
 21
8.0
 31
0.0
  0
TEXT
  5
1F2
330
17
100
AcDbEntity
  8
M-DUCT
100
AcDbText
 10
18.55
 20
9.03
 30
0.0
 40
0.1
  1
Ø200
100
AcDbText
  0
LINE
  5
1F3
330
17
100
AcDbEntity
  8
M-EQUIP
 62
2
370
25
100
AcDbLine
 10
28.5
 20
11.0
 30
0.0
 11
27.225
 21
0.05
 31
0.0
  0
LINE
  5
1F4
330
17
100
AcDbEntity
  8
M-EQUIP
 62
2
370
25
100
AcDbLine
 10
27.225
 20
0.05
 30
0.0
 11
28.5
 21
11.0
 31
0.0
  0
LINE
  5
1F5
330
17
100
AcDbEntity
  8
M-EQUIP
 62
4
370
25
100
AcDbLine
 10
27.225
 20
0.05
 30
0.0
 11
27.225
 21
0.05
 31
0.0
  0
TEXT
  5
1F6
330
17
100
AcDbEntity
  8
M-EQUIP
100
AcDbText
 10
27.225
 20
0.13
 30
0.0
 40
0.1
  1
Ø32
100
AcDbText
  0
LINE
  5
1F7
330
17
100
AcDbEntity
  8
M-EQUIP
 62
2
370
25
100
AcDbLine
 10
28.5
 20
11.0
 30
0.0
 11
6.95
 21
13.3625
 31
0.0
  0
LINE
  5
1F8
330
17
100
AcDbEntity
  8
M-EQUIP
 62
2
370
25
100
AcDbLine
 10
6.95
 20
13.3625
 30
0.0
 11
28.5
 21
11.0
 31
0.0
  0
LINE
  5
1F9
330
17
100
AcDbEntity
  8
M-EQUIP
 62
4
370
25
100
AcDbLine
 10
6.95
 20
13.3625
 30
0.0
 11
6.95
 21
13.3625
 31
0.0
  0
TEXT
  5
1FA
330
17
100
AcDbEntity
  8
M-EQUIP
100
AcDbText
 10
6.95
 20
13.4425
 30
0.0
 40
0.1
  1
Ø32
100
AcDbText
  0
LINE
  5
1FB
330
17
100
AcDbEntity
  8
M-DUCT
 62
30
370
35
100
AcDbLine
 10
14.0
 20
9.9
 30
0.0
 11
3.5
 21
17.0
 31
0.0
  0
TEXT
  5
1FC
330
17
100
AcDbEntity
  8
M-DUCT
100
AcDbText
 10
8.75
 20
13.53
 30
0.0
 40
0.1
  1
Ø200
100
AcDbText
  0
LINE
  5
1FD
330
17
100
AcDbEntity
  8
M-EQUIP
 62
2
370
25
100
AcDbLine
 10
28.5
 20
11.0
 30
0.0
 11
13.95
 21
15.675
 31
0.0
  0
LINE
  5
1FE
330
17
100
AcDbEntity
  8
M-EQUIP
 62
2
370
25
100
AcDbLine
 10
13.95
 20
15.675
 30
0.0
 11
28.5
 21
11.0
 31
0.0
  0
LINE
  5
1FF
330
17
100
AcDbEntity
  8
M-EQUIP
 62
4
370
25
100
AcDbLine
 10
13.95
 20
15.675
 30
0.0
 11
13.95
 21
15.675
 31
0.0
  0
TEXT
  5
200
330
17
100
AcDbEntity
  8
M-EQUIP
100
AcDbText
 10
13.95
 20
15.755
 30
0.0
 40
0.1
  1
Ø32
100
AcDbText
  0
LINE
  5
201
330
17
100
AcDbEntity
  8
M-EQUIP
 62
2
370
25
100
AcDbLine
 10
28.5
 20
11.0
 30
0.0
 11
15.825
 21
21.95
 31
0.0
  0
LINE
  5
202
330
17
100
AcDbEntity
  8
M-EQUIP
 62
2
370
25
100
AcDbLine
 10
15.825
 20
21.95
 30
0.0
 11
28.5
 21
11.0
 31
0.0
  0
LINE
  5
203
330
17
100
AcDbEntity
  8
M-EQUIP
 62
4
370
25
100
AcDbLine
 10
15.825
 20
21.95
 30
0.0
 11
15.825
 21
21.95
 31
0.0
  0
TEXT
  5
204
330
17
100
AcDbEntity
  8
M-EQUIP
100
AcDbText
 10
15.825
 20
22.029999999999998
 30
0.0
 40
0.1
  1
Ø32
100
AcDbText
  0
LINE
  5
205
330
17
100
AcDbEntity
  8
M-DUCT
 62
30
370
35
100
AcDbLine
 10
14.0
 20
9.9
 30
0.0
 11
17.5
 21
17.0
 31
0.0
  0
TEXT
  5
206
330
17
100
AcDbEntity
  8
M-DUCT
100
AcDbText
 10
15.75
 20
13.53
 30
0.0
 40
0.1
  1
Ø200
100
AcDbText
  0
LINE
  5
207
330
17
100
AcDbEntity
  8
M-EQUIP
 62
2
370
25
100
AcDbLine
 10
28.5
 20
11.0
 30
0.0
 11
27.95
 21
15.675
 31
0.0
  0
LINE
  5
208
330
17
100
AcDbEntity
  8
M-EQUIP
 62
2
370
25
100
AcDbLine
 10
27.95
 20
15.675
 30
0.0
 11
28.5
 21
11.0
 31
0.0
  0
LINE
  5
209
330
17
100
AcDbEntity
  8
M-EQUIP
 62
4
370
25
100
AcDbLine
 10
27.95
 20
15.675
 30
0.0
 11
27.95
 21
15.675
 31
0.0
  0
TEXT
  5
20A
330
17
100
AcDbEntity
  8
M-EQUIP
100
AcDbText
 10
27.95
 20
15.755
 30
0.0
 40
0.1
  1
Ø32
100
AcDbText
  0
LWPOLYLINE
  5
20B
330
17
100
AcDbEntity
  8
G-CART
370
50
100
AcDbPolyline
 90
4
 70
1
 10
-2.0
 20
-5.5
 10
30.0
 20
-5.5
 10
30.0
 20
-8.0
 10
-2.0
 20
-8.0
  0
LINE
  5
20C
330
17
100
AcDbEntity
  8
G-CART
100
AcDbLine
 10
9.2
 20
-5.5
 30
0.0
 11
9.2
 21
-8.0
 31
0.0
  0
LINE
  5
20D
330
17
100
AcDbEntity
  8
G-CART
100
AcDbLine
 10
18.8
 20
-5.5
 30
0.0
 11
18.8
 21
-8.0
 31
0.0
  0
TEXT
  5
20E
330
17
100
AcDbEntity
  8
G-CART
100
AcDbText
 10
-1.85
 20
-5.8500000000000005
 30
0.0
 40
0.2
  1
Résidence Papa Oumar Sakho
100
AcDbText
  0
TEXT
  5
20F
330
17
100
AcDbEntity
  8
G-CART
100
AcDbText
 10
-1.85
 20
-6.250000000000001
 30
0.0
 40
0.15
  1
Dakar, Senegal
100
AcDbText
  0
TEXT
  5
210
330
17
100
AcDbEntity
  8
G-CART
100
AcDbText
 10
-1.85
 20
-6.65
 30
0.0
 40
0.15
  1
Réf: 1711
100
AcDbText
  0
TEXT
  5
211
330
17
100
AcDbEntity
  8
G-CART
100
AcDbText
 10
9.35
 20
-5.8500000000000005
 30
0.0
 40
0.2
  1
413 HVC — Climatisation
100
AcDbText
  0
TEXT
  5
212
330
17
100
AcDbEntity
  8
G-CART
100
AcDbText
 10
9.35
 20
-6.3500000000000005
 30
0.0
 40
0.2
  1
Niveau: R+2
100
AcDbText
  0
TEXT
  5
213
330
17
100
AcDbEntity
  8
G-CART
100
AcDbText
 10
9.35
 20
-6.8500000000000005
 30
0.0
 40
0.15
  1
Élévation: +7.00 m
100
AcDbText
  0
TEXT
  5
214
330
17
100
AcDbEntity
  8
G-CART
100
AcDbText
 10
18.95
 20
-5.8500000000000005
 30
0.0
 40
0.24
  1
TIJAN AI
100
AcDbText
  0
TEXT
  5
215
330
17
100
AcDbEntity
  8
G-CART
100
AcDbText
 10
18.95
 20
-6.3500000000000005
 30
0.0
 40
0.15
  1
Bureau d'Études Automatisé
100
AcDbText
  0
TEXT
  5
216
330
17
100
AcDbEntity
  8
G-CART
100
AcDbText
 10
18.95
 20
-6.8500000000000005
 30
0.0
 40
0.15
  1
Échelle: 1/100
100
AcDbText
  0
TEXT
  5
217
330
17
100
AcDbEntity
  8
G-CART
100
AcDbText
 10
18.95
 20
-7.3500000000000005
 30
0.0
 40
0.15
  1
Page 54
100
AcDbText
  0
ENDSEC
  0
SECTION
  2
OBJECTS
  0
DICTIONARY
  5
A
330
0
100
AcDbDictionary
281
1
  3
ACAD_COLOR
350
B
  3
ACAD_GROUP
350
C
  3
ACAD_LAYOUT
350
D
  3
ACAD_MATERIAL
350
E
  3
ACAD_MLEADERSTYLE
350
F
  3
ACAD_MLINESTYLE
350
10
  3
ACAD_PLOTSETTINGS
350
11
  3
ACAD_PLOTSTYLENAME
350
12
  3
ACAD_SCALELIST
350
14
  3
ACAD_TABLESTYLE
350
15
  3
ACAD_VISUALSTYLE
350
16
  3
EZDXF_META
350
2D
  0
DICTIONARY
  5
B
330
A
100
AcDbDictionary
281
1
  0
DICTIONARY
  5
C
330
A
100
AcDbDictionary
281
1
  0
DICTIONARY
  5
D
330
A
100
AcDbDictionary
281
1
  3
Model
350
1A
  3
Layout1
350
1E
  0
DICTIONARY
  5
E
330
A
100
AcDbDictionary
281
1
  3
ByBlock
350
1F
  3
ByLayer
350
20
  3
Global
350
21
  0
DICTIONARY
  5
F
330
A
100
AcDbDictionary
281
1
  3
Standard
350
2C
  0
DICTIONARY
  5
10
330
A
100
AcDbDictionary
281
1
  3
Standard
350
22
  0
DICTIONARY
  5
11
330
A
100
AcDbDictionary
281
1
  0
ACDBDICTIONARYWDFLT
  5
12
330
A
100
AcDbDictionary
281
1
  3
Normal
350
13
100
AcDbDictionaryWithDefault
340
13
  0
ACDBPLACEHOLDER
  5
13
330
12
  0
DICTIONARY
  5
14
330
A
100
AcDbDictionary
281
1
  0
DICTIONARY
  5
15
330
A
100
AcDbDictionary
281
1
  0
DICTIONARY
  5
16
330
A
100
AcDbDictionary
281
1
  3
2dWireframe
350
5A
  3
Basic
350
5B
  3
Brighten
350
5C
  3
ColorChange
350
5D
  3
Conceptual
350
5E
  3
Dim
350
5F
  3
EdgeColorOff
350
60
  3
Facepattern
350
61
  3
Flat
350
62
  3
FlatWithEdges
350
63
  3
Gouraud
350
64
  3
GouraudWithEdges
350
65
  3
Hidden
350
66
  3
JitterOff
350
67
  3
Linepattern
350
68
  3
Modeling
350
69
  3
OverhangOff
350
6A
  3
Realistic
350
6B
  3
Shaded
350
6C
  3
Shaded with edges
350
6D
  3
Shades of Gray
350
6E
  3
Sketchy
350
6F
  3
Thicken
350
70
  3
Wireframe
350
71
  3
X-Ray
350
72
  0
LAYOUT
  5
1A
330
D
100
AcDbPlotSettings
  1

  4
A3
  6

 40
7.5
 41
20.0
 42
7.5
 43
20.0
 44
420.0
 45
297.0
 46
0.0
 47
0.0
 48
0.0
 49
0.0
140
0.0
141
0.0
142
1.0
143
1.0
 70
1024
 72
1
 73
0
 74
5
  7

 75
16
 76
0
 77
2
 78
300
147
1.0
148
0.0
149
0.0
100
AcDbLayout
  1
Model
 70
1
 71
0
 10
0.0
 20
0.0
 11
420.0
 21
297.0
 12
0.0
 22
0.0
 32
0.0
 14
1e+20
 24
1e+20
 34
1e+20
 15
-1e+20
 25
-1e+20
 35
-1e+20
146
0.0
 13
0.0
 23
0.0
 33
0.0
 16
1.0
 26
0.0
 36
0.0
 17
0.0
 27
1.0
 37
0.0
 76
1
330
17
  0
LAYOUT
  5
1E
330
D
100
AcDbPlotSettings
  1

  4
A3
  6

 40
7.5
 41
20.0
 42
7.5
 43
20.0
 44
420.0
 45
297.0
 46
0.0
 47
0.0
 48
0.0
 49
0.0
140
0.0
141
0.0
142
1.0
143
1.0
 70
0
 72
1
 73
0
 74
5
  7

 75
16
 76
0
 77
2
 78
300
147
1.0
148
0.0
149
0.0
100
AcDbLayout
  1
Layout1
 70
1
 71
1
 10
0.0
 20
0.0
 11
420.0
 21
297.0
 12
0.0
 22
0.0
 32
0.0
 14
1e+20
 24
1e+20
 34
1e+20
 15
-1e+20
 25
-1e+20
 35
-1e+20
146
0.0
 13
0.0
 23
0.0
 33
0.0
 16
1.0
 26
0.0
 36
0.0
 17
0.0
 27
1.0
 37
0.0
 76
1
330
1B
  0
MATERIAL
  5
1F
102
{ACAD_REACTORS
330
E
102
}
330
E
100
AcDbMaterial
  1
ByBlock
  2

 70
0
 40
1.0
 71
1
 41
1.0
 91
-1023410177
 42
1.0
 72
1
  3

 73
1
 74
1
 75
1
 44
0.5
 73
0
 45
1.0
 46
1.0
 77
1
  4

 78
1
 79
1
170
1
 48
1.0
171
1
  6

172
1
173
1
174
1
140
1.0
141
1.0
175
1
  7

176
1
177
1
178
1
143
1.0
179
1
  8

270
1
271
1
272
1
145
1.0
146
1.0
273
1
  9

274
1
275
1
276
1
 42
1.0
 72
1
  3

 73
1
 74
1
 75
1
 94
63
  0
MATERIAL
  5
20
102
{ACAD_REACTORS
330
E
102
}
330
E
100
AcDbMaterial
  1
ByLayer
  2

 70
0
 40
1.0
 71
1
 41
1.0
 91
-1023410177
 42
1.0
 72
1
  3

 73
1
 74
1
 75
1
 44
0.5
 73
0
 45
1.0
 46
1.0
 77
1
  4

 78
1
 79
1
170
1
 48
1.0
171
1
  6

172
1
173
1
174
1
140
1.0
141
1.0
175
1
  7

176
1
177
1
178
1
143
1.0
179
1
  8

270
1
271
1
272
1
145
1.0
146
1.0
273
1
  9

274
1
275
1
276
1
 42
1.0
 72
1
  3

 73
1
 74
1
 75
1
 94
63
  0
MATERIAL
  5
21
102
{ACAD_REACTORS
330
E
102
}
330
E
100
AcDbMaterial
  1
Global
  2

 70
0
 40
1.0
 71
1
 41
1.0
 91
-1023410177
 42
1.0
 72
1
  3

 73
1
 74
1
 75
1
 44
0.5
 73
0
 45
1.0
 46
1.0
 77
1
  4

 78
1
 79
1
170
1
 48
1.0
171
1
  6

172
1
173
1
174
1
140
1.0
141
1.0
175
1
  7

176
1
177
1
178
1
143
1.0
179
1
  8

270
1
271
1
272
1
145
1.0
146
1.0
273
1
  9

274
1
275
1
276
1
 42
1.0
 72
1
  3

 73
1
 74
1
 75
1
 94
63
  0
MLINESTYLE
  5
22
102
{ACAD_REACTORS
330
10
102
}
330
10
100
AcDbMlineStyle
  2
Standard
 70
0
  3

 62
256
 51
90.0
 52
90.0
 71
2
 49
0.5
 62
256
  6
BYLAYER
 49
-0.5
 62
256
  6
BYLAYER
  0
MLEADERSTYLE
  5
2C
102
{ACAD_REACTORS
330
F
102
}
330
F
100
AcDbMLeaderStyle
179
2
170
2
171
1
172
0
 90
2
 40
0.0
 41
0.0
173
1
 91
-1056964608
 92
-2
290
1
 42
2.0
291
1
 43
8.0
  3
Standard
 44
4.0
300

342
29
174
1
175
1
176
0
178
1
 93
-1056964608
 45
4.0
292
0
297
0
 46
4.0
 94
-1056964608
 47
1.0
 49
1.0
140
1.0
294
1
141
0.0
177
0
142
1.0
295
0
296
0
143
3.75
271
0
272
9
273
9
  0
DICTIONARY
  5
2D
330
A
100
AcDbDictionary
280
1
281
1
  3
CREATED_BY_EZDXF
350
2E
  3
WRITTEN_BY_EZDXF
350
21A
  0
DICTIONARYVAR
  5
2E
330
2D
100
DictionaryVariables
280
0
  1
1.4.2 @ 2026-05-06T13:55:53.219174+00:00
  0
VISUALSTYLE
  5
5A
102
{ACAD_REACTORS
330
16
102
}
330
16
100
AcDbVisualStyle
  2
2dWireframe
 70
4
177
3
291
0
 70
58
 90
2
176
1
 90
2
176
1
 90
0
176
1
 90
0
176
1
 40
0.6
176
1
 40
30.0
176
1
 62
7
420
16777215
176
1
 90
1
176
1
 90
4
176
1
 62
7
176
1
 62
257
176
1
 90
1
176
1
 90
1
176
1
 40
1.0
176
1
 90
8
176
1
 62
7
176
1
 40
1.0
176
1
 90
1
176
1
 90
6
176
1
 90
2
176
1
 62
7
176
1
 90
5
176
1
 90
0
176
1
 90
0
176
1
290
0
176
1
 90
1
176
1
 40
0.0
176
1
 90
0
176
1
290
1
176
1
290
1
176
1
290
0
176
1
290
0
176
1
290
0
176
1
290
0
176
1
290
0
176
1
290
0
176
1
290
0
176
1
 90
50
176
1
 40
0.0
176
1
 40
1.0
176
1
 90
0
176
1
 62
18
420
0
176
1
 90
50
176
1
 90
3
176
1
 62
5
420
255
176
1
290
0
176
1
 90
50
176
1
 90
50
176
1
 90
50
176
1
290
0
176
1
 90
50
176
1
 62
256
176
0
 40
1.0
176
0
 90
2
176
1
  1
strokes_ogs.tif
176
1
290
0
176
1
 40
1.0
176
1
 40
1.0
176
1
  0
VISUALSTYLE
  5
5B
102
{ACAD_REACTORS
330
16
102
}
330
16
100
AcDbVisualStyle
  2
Basic
 70
7
177
3
291
1
 70
58
 90
2
176
1
 90
2
176
1
 90
0
176
1
 90
1
176
1
 40
0.6
176
1
 40
30.0
176
1
 62
7
420
16777215
176
1
 90
1
176
1
 90
4
176
1
 62
7
176
1
 62
257
176
1
 90
1
176
1
 90
1
176
1
 40
1.0
176
1
 90
8
176
1
 62
7
176
1
 40
1.0
176
1
 90
1
176
1
 90
6
176
1
 90
2
176
1
 62
7
176
1
 90
5
176
1
 90
0
176
1
 90
0
176
1
290
0
176
1
 90
1
176
1
 40
0.0
176
1
 90
0
176
1
290
0
176
1
290
1
176
1
290
1
176
1
290
0
176
1
290
0
176
1
290
0
176
1
290
0
176
1
290
0
176
1
290
0
176
1
 90
50
176
1
 40
0.0
176
1
 40
1.0
176
1
 90
0
176
1
 62
18
420
0
176
1
 90
50
176
1
 90
3
176
1
 62
5
420
255
176
1
290
0
176
1
 90
50
176
1
 90
50
176
1
 90
50
176
1
290
0
176
1
 90
50
176
1
 62
256
176
0
 40
1.0
176
0
 90
2
176
1
  1
strokes_ogs.tif
176
1
290
0
176
1
 40
1.0
176
1
 40
1.0
176
1
  0
VISUALSTYLE
  5
5C
102
{ACAD_REACTORS
330
16
102
}
330
16
100
AcDbVisualStyle
  2
Brighten
 70
12
177
3
291
1
 70
58
 90
2
176
1
 90
2
176
1
 90
0
176
1
 90
2
176
1
 40
0.6
176
1
 40
30.0
176
1
 62
7
420
16777215
176
1
 90
1
176
1
 90
4
176
1
 62
7
176
1
 62
257
176
1
 90
1
176
1
 90
1
176
1
 40
1.0
176
1
 90
8
176
1
 62
7
176
1
 40
1.0
176
1
 90
1
176
1
 90
6
176
1
 90
2
176
1
 62
7
176
1
 90
5
176
1
 90
0
176
1
 90
0
176
1
290
0
176
1
 90
1
176
1
 40
0.0
176
1
 90
0
176
1
290
0
176
1
290
1
176
1
290
1
176
1
290
0
176
1
290
0
176
1
290
0
176
1
290
0
176
1
290
0
176
1
290
0
176
1
 90
50
176
1
 40
0.0
176
1
 40
1.0
176
1
 90
0
176
1
 62
18
420
0
176
1
 90
50
176
1
 90
3
176
1
 62
5
420
255
176
1
290
0
176
1
 90
50
176
1
 90
50
176
1
 90
50
176
1
290
0
176
1
 90
50
176
1
 62
256
176
0
 40
1.0
176
0
 90
2
176
1
  1
strokes_ogs.tif
176
1
290
0
176
1
 40
1.0
176
1
 40
1.0
176
1
  0
VISUALSTYLE
  5
5D
102
{ACAD_REACTORS
330
16
102
}
330
16
100
AcDbVisualStyle
  2
ColorChange
 70
16
177
3
291
1
 70
58
 90
2
176
1
 90
2
176
1
 90
0
176
1
 90
2
176
1
 40
0.6
176
1
 40
30.0
176
1
 62
7
420
16777215
176
1
 90
1
176
1
 90
4
176
1
 62
7
176
1
 62
257
176
1
 90
1
176
1
 90
1
176
1
 40
1.0
176
1
 90
8
176
1
 62
7
176
1
 40
1.0
176
1
 90
1
176
1
 90
6
176
1
 90
2
176
1
 62
7
176
1
 90
5
176
1
 90
0
176
1
 90
0
176
1
290
0
176
1
 90
1
176
1
 40
0.0
176
1
 90
0
176
1
290
0
176
1
290
1
176
1
290
1
176
1
290
0
176
1
290
0
176
1
290
0
176
1
290
0
176
1
290
0
176
1
290
0
176
1
 90
50
176
1
 40
0.0
176
1
 40
1.0
176
1
 90
0
176
1
 62
18
420
0
176
1
 90
50
176
1
 90
3
176
1
 62
5
420
255
176
1
290
0
176
1
 90
50
176
1
 90
50
176
1
 90
50
176
1
290
0
176
1
 90
50
176
1
 62
256
176
0
 40
1.0
176
0
 90
2
176
1
  1
strokes_ogs.tif
176
1
290
0
176
1
 40
1.0
176
1
 40
1.0
176
1
  0
VISUALSTYLE
  5
5E
102
{ACAD_REACTORS
330
16
102
}
330
16
100
AcDbVisualStyle
  2
Conceptual
 70
9
177
3
291
0
 70
58
 90
2
176
1
 90
2
176
1
 90
0
176
1
 90
3
176
1
 40
0.6
176
1
 40
30.0
176
1
 62
7
420
16777215
176
1
 90
1
176
1
 90
4
176
1
 62
7
176
1
 62
257
176
1
 90
1
176
1
 90
1
176
1
 40
1.0
176
1
 90
8
176
1
 62
7
176
1
 40
1.0
176
1
 90
1
176
1
 90
6
176
1
 90
2
176
1
 62
7
176
1
 90
5
176
1
 90
0
176
1
 90
0
176
1
290
0
176
1
 90
1
176
1
 40
0.0
176
1
 90
0
176
1
290
0
176
1
290
1
176
1
290
1
176
1
290
0
176
1
290
0
176
1
290
0
176
1
290
0
176
1
290
0
176
1
290
0
176
1
 90
50
176
1
 40
0.0
176
1
 40
1.0
176
1
 90
0
176
1
 62
18
420
0
176
1
 90
50
176
1
 90
3
176
1
 62
5
420
255
176
1
290
0
176
1
 90
50
176
1
 90
50
176
1
 90
50
176
1
290
0
176
1
 90
50
176
1
 62
256
176
0
 40
1.0
176
0
 90
2
176
1
  1
strokes_ogs.tif
176
1
290
0
176
1
 40
1.0
176
1
 40
1.0
176
1
  0
VISUALSTYLE
  5
5F
102
{ACAD_REACTORS
330
16
102
}
330
16
100
AcDbVisualStyle
  2
Dim
 70
11
177
3
291
1
 70
58
 90
2
176
1
 90
2
176
1
 90
0
176
1
 90
2
176
1
 40
0.6
176
1
 40
30.0
176
1
 62
7
420
16777215
176
1
 90
1
176
1
 90
4
176
1
 62
7
176
1
 62
257
176
1
 90
1
176
1
 90
1
176
1
 40
1.0
176
1
 90
8
176
1
 62
7
176
1
 40
1.0
176
1
 90
1
176
1
 90
6
176
1
 90
2
176
1
 62
7
176
1
 90
5
176
1
 90
0
176
1
 90
0
176
1
290
0
176
1
 90
1
176
1
 40
0.0
176
1
 90
0
176
1
290
0
176
1
290
1
176
1
290
1
176
1
290
0
176
1
290
0
176
1
290
0
176
1
290
0
176
1
290
0
176
1
290
0
176
1
 90
50
176
1
 40
0.0
176
1
 40
1.0
176
1
 90
0
176
1
 62
18
420
0
176
1
 90
50
176
1
 90
3
176
1
 62
5
420
255
176
1
290
0
176
1
 90
50
176
1
 90
50
176
1
 90
50
176
1
290
0
176
1
 90
50
176
1
 62
256
176
0
 40
1.0
176
0
 90
2
176
1
  1
strokes_ogs.tif
176
1
290
0
176
1
 40
1.0
176
1
 40
1.0
176
1
  0
VISUALSTYLE
  5
60
102
{ACAD_REACTORS
330
16
102
}
330
16
100
AcDbVisualStyle
  2
EdgeColorOff
 70
22
177
3
291
1
 70
58
 90
2
176
1
 90
2
176
1
 90
0
176
1
 90
2
176
1
 40
0.6
176
1
 40
30.0
176
1
 62
7
420
16777215
176
1
 90
1
176
1
 90
4
176
1
 62
7
176
1
 62
257
176
1
 90
1
176
1
 90
1
176
1
 40
1.0
176
1
 90
8
176
1
 62
7
176
1
 40
1.0
176
1
 90
1
176
1
 90
6
176
1
 90
2
176
1
 62
7
176
1
 90
5
176
1
 90
0
176
1
 90
0
176
1
290
0
176
1
 90
1
176
1
 40
0.0
176
1
 90
0
176
1
290
0
176
1
290
1
176
1
290
1
176
1
290
0
176
1
290
0
176
1
290
0
176
1
290
0
176
1
290
0
176
1
290
0
176
1
 90
50
176
1
 40
0.0
176
1
 40
1.0
176
1
 90
0
176
1
 62
18
420
0
176
1
 90
50
176
1
 90
3
176
1
 62
5
420
255
176
1
290
0
176
1
 90
50
176
1
 90
50
176
1
 90
50
176
1
290
0
176
1
 90
50
176
1
 62
256
176
0
 40
1.0
176
0
 90
2
176
1
  1
strokes_ogs.tif
176
1
290
0
176
1
 40
1.0
176
1
 40
1.0
176
1
  0
VISUALSTYLE
  5
61
102
{ACAD_REACTORS
330
16
102
}
330
16
100
AcDbVisualStyle
  2
Facepattern
 70
15
177
3
291
1
 70
58
 90
2
176
1
 90
2
176
1
 90
0
176
1
 90
2
176
1
 40
0.6
176
1
 40
30.0
176
1
 62
7
420
16777215
176
1
 90
1
176
1
 90
4
176
1
 62
7
176
1
 62
257
176
1
 90
1
176
1
 90
1
176
1
 40
1.0
176
1
 90
8
176
1
 62
7
176
1
 40
1.0
176
1
 90
1
176
1
 90
6
176
1
 90
2
176
1
 62
7
176
1
 90
5
176
1
 90
0
176
1
 90
0
176
1
290
0
176
1
 90
1
176
1
 40
0.0
176
1
 90
0
176
1
290
0
176
1
290
1
176
1
290
1
176
1
290
0
176
1
290
0
176
1
290
0
176
1
290
0
176
1
290
0
176
1
290
0
176
1
 90
50
176
1
 40
0.0
176
1
 40
1.0
176
1
 90
0
176
1
 62
18
420
0
176
1
 90
50
176
1
 90
3
176
1
 62
5
420
255
176
1
290
0
176
1
 90
50
176
1
 90
50
176
1
 90
50
176
1
290
0
176
1
 90
50
176
1
 62
256
176
0
 40
1.0
176
0
 90
2
176
1
  1
strokes_ogs.tif
176
1
290
0
176
1
 40
1.0
176
1
 40
1.0
176
1
  0
VISUALSTYLE
  5
62
102
{ACAD_REACTORS
330
16
102
}
330
16
100
AcDbVisualStyle
  2
Flat
 70
0
177
3
291
1
 70
58
 90
2
176
1
 90
2
176
1
 90
0
176
1
 90
2
176
1
 40
0.6
176
1
 40
30.0
176
1
 62
7
420
16777215
176
1
 90
1
176
1
 90
4
176
1
 62
7
176
1
 62
257
176
1
 90
1
176
1
 90
1
176
1
 40
1.0
176
1
 90
8
176
1
 62
7
176
1
 40
1.0
176
1
 90
1
176
1
 90
6
176
1
 90
2
176
1
 62
7
176
1
 90
5
176
1
 90
0
176
1
 90
0
176
1
290
0
176
1
 90
1
176
1
 40
0.0
176
1
 90
0
176
1
290
0
176
1
290
1
176
1
290
1
176
1
290
0
176
1
290
0
176
1
290
0
176
1
290
0
176
1
290
0
176
1
290
0
176
1
 90
50
176
1
 40
0.0
176
1
 40
1.0
176
1
 90
0
176
1
 62
18
420
0
176
1
 90
50
176
1
 90
3
176
1
 62
5
420
255
176
1
290
0
176
1
 90
50
176
1
 90
50
176
1
 90
50
176
1
290
0
176
1
 90
50
176
1
 62
256
176
0
 40
1.0
176
0
 90
2
176
1
  1
strokes_ogs.tif
176
1
290
0
176
1
 40
1.0
176
1
 40
1.0
176
1
  0
VISUALSTYLE
  5
63
102
{ACAD_REACTORS
330
16
102
}
330
16
100
AcDbVisualStyle
  2
FlatWithEdges
 70
1
177
3
291
1
 70
58
 90
2
176
1
 90
2
176
1
 90
0
176
1
 90
2
176
1
 40
0.6
176
1
 40
30.0
176
1
 62
7
420
16777215
176
1
 90
1
176
1
 90
4
176
1
 62
7
176
1
 62
257
176
1
 90
1
176
1
 90
1
176
1
 40
1.0
176
1
 90
8
176
1
 62
7
176
1
 40
1.0
176
1
 90
1
176
1
 90
6
176
1
 90
2
176
1
 62
7
176
1
 90
5
176
1
 90
0
176
1
 90
0
176
1
290
0
176
1
 90
1
176
1
 40
0.0
176
1
 90
0
176
1
290
0
176
1
290
1
176
1
290
1
176
1
290
0
176
1
290
0
176
1
290
0
176
1
290
0
176
1
290
0
176
1
290
0
176
1
 90
50
176
1
 40
0.0
176
1
 40
1.0
176
1
 90
0
176
1
 62
18
420
0
176
1
 90
50
176
1
 90
3
176
1
 62
5
420
255
176
1
290
0
176
1
 90
50
176
1
 90
50
176
1
 90
50
176
1
290
0
176
1
 90
50
176
1
 62
256
176
0
 40
1.0
176
0
 90
2
176
1
  1
strokes_ogs.tif
176
1
290
0
176
1
 40
1.0
176
1
 40
1.0
176
1
  0
VISUALSTYLE
  5
64
102
{ACAD_REACTORS
330
16
102
}
330
16
100
AcDbVisualStyle
  2
Gouraud
 70
2
177
3
291
1
 70
58
 90
2
176
1
 90
2
176
1
 90
0
176
1
 90
2
176
1
 40
0.6
176
1
 40
30.0
176
1
 62
7
420
16777215
176
1
 90
1
176
1
 90
4
176
1
 62
7
176
1
 62
257
176
1
 90
1
176
1
 90
1
176
1
 40
1.0
176
1
 90
8
176
1
 62
7
176
1
 40
1.0
176
1
 90
1
176
1
 90
6
176
1
 90
2
176
1
 62
7
176
1
 90
5
176
1
 90
0
176
1
 90
0
176
1
290
0
176
1
 90
1
176
1
 40
0.0
176
1
 90
0
176
1
290
0
176
1
290
1
176
1
290
1
176
1
290
0
176
1
290
0
176
1
290
0
176
1
290
0
176
1
290
0
176
1
290
0
176
1
 90
50
176
1
 40
0.0
176
1
 40
1.0
176
1
 90
0
176
1
 62
18
420
0
176
1
 90
50
176
1
 90
3
176
1
 62
5
420
255
176
1
290
0
176
1
 90
50
176
1
 90
50
176
1
 90
50
176
1
290
0
176
1
 90
50
176
1
 62
256
176
0
 40
1.0
176
0
 90
2
176
1
  1
strokes_ogs.tif
176
1
290
0
176
1
 40
1.0
176
1
 40
1.0
176
1
  0
VISUALSTYLE
  5
65
102
{ACAD_REACTORS
330
16
102
}
330
16
100
AcDbVisualStyle
  2
GouraudWithEdges
 70
3
177
3
291
1
 70
58
 90
2
176
1
 90
2
176
1
 90
0
176
1
 90
2
176
1
 40
0.6
176
1
 40
30.0
176
1
 62
7
420
16777215
176
1
 90
1
176
1
 90
4
176
1
 62
7
176
1
 62
257
176
1
 90
1
176
1
 90
1
176
1
 40
1.0
176
1
 90
8
176
1
 62
7
176
1
 40
1.0
176
1
 90
1
176
1
 90
6
176
1
 90
2
176
1
 62
7
176
1
 90
5
176
1
 90
0
176
1
 90
0
176
1
290
0
176
1
 90
1
176
1
 40
0.0
176
1
 90
0
176
1
290
0
176
1
290
1
176
1
290
1
176
1
290
0
176
1
290
0
176
1
290
0
176
1
290
0
176
1
290
0
176
1
290
0
176
1
 90
50
176
1
 40
0.0
176
1
 40
1.0
176
1
 90
0
176
1
 62
18
420
0
176
1
 90
50
176
1
 90
3
176
1
 62
5
420
255
176
1
290
0
176
1
 90
50
176
1
 90
50
176
1
 90
50
176
1
290
0
176
1
 90
50
176
1
 62
256
176
0
 40
1.0
176
0
 90
2
176
1
  1
strokes_ogs.tif
176
1
290
0
176
1
 40
1.0
176
1
 40
1.0
176
1
  0
VISUALSTYLE
  5
66
102
{ACAD_REACTORS
330
16
102
}
330
16
100
AcDbVisualStyle
  2
Hidden
 70
6
177
3
291
0
 70
58
 90
2
176
1
 90
2
176
1
 90
0
176
1
 90
1
176
1
 40
0.6
176
1
 40
30.0
176
1
 62
7
420
16777215
176
1
 90
1
176
1
 90
4
176
1
 62
7
176
1
 62
257
176
1
 90
1
176
1
 90
1
176
1
 40
1.0
176
1
 90
8
176
1
 62
7
176
1
 40
1.0
176
1
 90
1
176
1
 90
6
176
1
 90
2
176
1
 62
7
176
1
 90
5
176
1
 90
0
176
1
 90
0
176
1
290
0
176
1
 90
1
176
1
 40
0.0
176
1
 90
0
176
1
290
0
176
1
290
1
176
1
290
1
176
1
290
0
176
1
290
0
176
1
290
0
176
1
290
0
176
1
290
0
176
1
290
0
176
1
 90
50
176
1
 40
0.0
176
1
 40
1.0
176
1
 90
0
176
1
 62
18
420
0
176
1
 90
50
176
1
 90
3
176
1
 62
5
420
255
176
1
290
0
176
1
 90
50
176
1
 90
50
176
1
 90
50
176
1
290
0
176
1
 90
50
176
1
 62
256
176
0
 40
1.0
176
0
 90
2
176
1
  1
strokes_ogs.tif
176
1
290
0
176
1
 40
1.0
176
1
 40
1.0
176
1
  0
VISUALSTYLE
  5
67
102
{ACAD_REACTORS
330
16
102
}
330
16
100
AcDbVisualStyle
  2
JitterOff
 70
20
177
3
291
1
 70
58
 90
2
176
1
 90
2
176
1
 90
0
176
1
 90
2
176
1
 40
0.6
176
1
 40
30.0
176
1
 62
7
420
16777215
176
1
 90
1
176
1
 90
4
176
1
 62
7
176
1
 62
257
176
1
 90
1
176
1
 90
1
176
1
 40
1.0
176
1
 90
8
176
1
 62
7
176
1
 40
1.0
176
1
 90
1
176
1
 90
6
176
1
 90
2
176
1
 62
7
176
1
 90
5
176
1
 90
0
176
1
 90
0
176
1
290
0
176
1
 90
1
176
1
 40
0.0
176
1
 90
0
176
1
290
0
176
1
290
1
176
1
290
1
176
1
290
0
176
1
290
0
176
1
290
0
176
1
290
0
176
1
290
0
176
1
290
0
176
1
 90
50
176
1
 40
0.0
176
1
 40
1.0
176
1
 90
0
176
1
 62
18
420
0
176
1
 90
50
176
1
 90
3
176
1
 62
5
420
255
176
1
290
0
176
1
 90
50
176
1
 90
50
176
1
 90
50
176
1
290
0
176
1
 90
50
176
1
 62
256
176
0
 40
1.0
176
0
 90
2
176
1
  1
strokes_ogs.tif
176
1
290
0
176
1
 40
1.0
176
1
 40
1.0
176
1
  0
VISUALSTYLE
  5
68
102
{ACAD_REACTORS
330
16
102
}
330
16
100
AcDbVisualStyle
  2
Linepattern
 70
14
177
3
291
1
 70
58
 90
2
176
1
 90
2
176
1
 90
0
176
1
 90
2
176
1
 40
0.6
176
1
 40
30.0
176
1
 62
7
420
16777215
176
1
 90
1
176
1
 90
4
176
1
 62
7
176
1
 62
257
176
1
 90
1
176
1
 90
1
176
1
 40
1.0
176
1
 90
8
176
1
 62
7
176
1
 40
1.0
176
1
 90
1
176
1
 90
6
176
1
 90
2
176
1
 62
7
176
1
 90
5
176
1
 90
0
176
1
 90
0
176
1
290
0
176
1
 90
1
176
1
 40
0.0
176
1
 90
0
176
1
290
0
176
1
290
1
176
1
290
1
176
1
290
0
176
1
290
0
176
1
290
0
176
1
290
0
176
1
290
0
176
1
290
0
176
1
 90
50
176
1
 40
0.0
176
1
 40
1.0
176
1
 90
0
176
1
 62
18
420
0
176
1
 90
50
176
1
 90
3
176
1
 62
5
420
255
176
1
290
0
176
1
 90
50
176
1
 90
50
176
1
 90
50
176
1
290
0
176
1
 90
50
176
1
 62
256
176
0
 40
1.0
176
0
 90
2
176
1
  1
strokes_ogs.tif
176
1
290
0
176
1
 40
1.0
176
1
 40
1.0
176
1
  0
VISUALSTYLE
  5
69
102
{ACAD_REACTORS
330
16
102
}
330
16
100
AcDbVisualStyle
  2
Modeling
 70
10
177
3
291
0
 70
58
 90
2
176
1
 90
2
176
1
 90
0
176
1
 90
2
176
1
 40
0.6
176
1
 40
30.0
176
1
 62
7
420
16777215
176
1
 90
1
176
1
 90
4
176
1
 62
7
176
1
 62
257
176
1
 90
1
176
1
 90
1
176
1
 40
1.0
176
1
 90
8
176
1
 62
7
176
1
 40
1.0
176
1
 90
1
176
1
 90
6
176
1
 90
2
176
1
 62
7
176
1
 90
5
176
1
 90
0
176
1
 90
0
176
1
290
0
176
1
 90
1
176
1
 40
0.0
176
1
 90
0
176
1
290
0
176
1
290
1
176
1
290
1
176
1
290
0
176
1
290
0
176
1
290
0
176
1
290
0
176
1
290
0
176
1
290
0
176
1
 90
50
176
1
 40
0.0
176
1
 40
1.0
176
1
 90
0
176
1
 62
18
420
0
176
1
 90
50
176
1
 90
3
176
1
 62
5
420
255
176
1
290
0
176
1
 90
50
176
1
 90
50
176
1
 90
50
176
1
290
0
176
1
 90
50
176
1
 62
256
176
0
 40
1.0
176
0
 90
2
176
1
  1
strokes_ogs.tif
176
1
290
0
176
1
 40
1.0
176
1
 40
1.0
176
1
  0
VISUALSTYLE
  5
6A
102
{ACAD_REACTORS
330
16
102
}
330
16
100
AcDbVisualStyle
  2
OverhangOff
 70
21
177
3
291
1
 70
58
 90
2
176
1
 90
2
176
1
 90
0
176
1
 90
2
176
1
 40
0.6
176
1
 40
30.0
176
1
 62
7
420
16777215
176
1
 90
1
176
1
 90
4
176
1
 62
7
176
1
 62
257
176
1
 90
1
176
1
 90
1
176
1
 40
1.0
176
1
 90
8
176
1
 62
7
176
1
 40
1.0
176
1
 90
1
176
1
 90
6
176
1
 90
2
176
1
 62
7
176
1
 90
5
176
1
 90
0
176
1
 90
0
176
1
290
0
176
1
 90
1
176
1
 40
0.0
176
1
 90
0
176
1
290
0
176
1
290
1
176
1
290
1
176
1
290
0
176
1
290
0
176
1
290
0
176
1
290
0
176
1
290
0
176
1
290
0
176
1
 90
50
176
1
 40
0.0
176
1
 40
1.0
176
1
 90
0
176
1
 62
18
420
0
176
1
 90
50
176
1
 90
3
176
1
 62
5
420
255
176
1
290
0
176
1
 90
50
176
1
 90
50
176
1
 90
50
176
1
290
0
176
1
 90
50
176
1
 62
256
176
0
 40
1.0
176
0
 90
2
176
1
  1
strokes_ogs.tif
176
1
290
0
176
1
 40
1.0
176
1
 40
1.0
176
1
  0
VISUALSTYLE
  5
6B
102
{ACAD_REACTORS
330
16
102
}
330
16
100
AcDbVisualStyle
  2
Realistic
 70
8
177
3
291
0
 70
58
 90
2
176
1
 90
2
176
1
 90
0
176
1
 90
2
176
1
 40
0.6
176
1
 40
30.0
176
1
 62
7
420
16777215
176
1
 90
1
176
1
 90
4
176
1
 62
7
176
1
 62
257
176
1
 90
1
176
1
 90
1
176
1
 40
1.0
176
1
 90
8
176
1
 62
7
176
1
 40
1.0
176
1
 90
1
176
1
 90
6
176
1
 90
2
176
1
 62
7
176
1
 90
5
176
1
 90
0
176
1
 90
0
176
1
290
0
176
1
 90
1
176
1
 40
0.0
176
1
 90
0
176
1
290
0
176
1
290
1
176
1
290
1
176
1
290
0
176
1
290
0
176
1
290
0
176
1
290
0
176
1
290
0
176
1
290
0
176
1
 90
50
176
1
 40
0.0
176
1
 40
1.0
176
1
 90
0
176
1
 62
18
420
0
176
1
 90
50
176
1
 90
3
176
1
 62
5
420
255
176
1
290
0
176
1
 90
50
176
1
 90
50
176
1
 90
50
176
1
290
0
176
1
 90
50
176
1
 62
256
176
0
 40
1.0
176
0
 90
2
176
1
  1
strokes_ogs.tif
176
1
290
0
176
1
 40
1.0
176
1
 40
1.0
176
1
  0
VISUALSTYLE
  5
6C
102
{ACAD_REACTORS
330
16
102
}
330
16
100
AcDbVisualStyle
  2
Shaded
 70
27
177
3
291
0
 70
58
 90
2
176
1
 90
2
176
1
 90
0
176
1
 90
2
176
1
 40
0.6
176
1
 40
30.0
176
1
 62
7
420
16777215
176
1
 90
1
176
1
 90
4
176
1
 62
7
176
1
 62
257
176
1
 90
1
176
1
 90
1
176
1
 40
1.0
176
1
 90
8
176
1
 62
7
176
1
 40
1.0
176
1
 90
1
176
1
 90
6
176
1
 90
2
176
1
 62
7
176
1
 90
5
176
1
 90
0
176
1
 90
0
176
1
290
0
176
1
 90
1
176
1
 40
0.0
176
1
 90
0
176
1
290
0
176
1
290
1
176
1
290
1
176
1
290
0
176
1
290
0
176
1
290
0
176
1
290
0
176
1
290
0
176
1
290
0
176
1
 90
50
176
1
 40
0.0
176
1
 40
1.0
176
1
 90
0
176
1
 62
18
420
0
176
1
 90
50
176
1
 90
3
176
1
 62
5
420
255
176
1
290
0
176
1
 90
50
176
1
 90
50
176
1
 90
50
176
1
290
0
176
1
 90
50
176
1
 62
256
176
0
 40
1.0
176
0
 90
2
176
1
  1
strokes_ogs.tif
176
1
290
0
176
1
 40
1.0
176
1
 40
1.0
176
1
  0
VISUALSTYLE
  5
6D
102
{ACAD_REACTORS
330
16
102
}
330
16
100
AcDbVisualStyle
  2
Shaded with edges
 70
26
177
3
291
0
 70
58
 90
2
176
1
 90
2
176
1
 90
0
176
1
 90
2
176
1
 40
0.6
176
1
 40
30.0
176
1
 62
7
420
16777215
176
1
 90
1
176
1
 90
4
176
1
 62
7
176
1
 62
257
176
1
 90
1
176
1
 90
1
176
1
 40
1.0
176
1
 90
8
176
1
 62
7
176
1
 40
1.0
176
1
 90
1
176
1
 90
6
176
1
 90
2
176
1
 62
7
176
1
 90
5
176
1
 90
0
176
1
 90
0
176
1
290
0
176
1
 90
1
176
1
 40
0.0
176
1
 90
0
176
1
290
0
176
1
290
1
176
1
290
1
176
1
290
0
176
1
290
0
176
1
290
0
176
1
290
0
176
1
290
0
176
1
290
0
176
1
 90
50
176
1
 40
0.0
176
1
 40
1.0
176
1
 90
0
176
1
 62
18
420
0
176
1
 90
50
176
1
 90
3
176
1
 62
5
420
255
176
1
290
0
176
1
 90
50
176
1
 90
50
176
1
 90
50
176
1
290
0
176
1
 90
50
176
1
 62
256
176
0
 40
1.0
176
0
 90
2
176
1
  1
strokes_ogs.tif
176
1
290
0
176
1
 40
1.0
176
1
 40
1.0
176
1
  0
VISUALSTYLE
  5
6E
102
{ACAD_REACTORS
330
16
102
}
330
16
100
AcDbVisualStyle
  2
Shades of Gray
 70
23
177
3
291
0
 70
58
 90
2
176
1
 90
2
176
1
 90
0
176
1
 90
2
176
1
 40
0.6
176
1
 40
30.0
176
1
 62
7
420
16777215
176
1
 90
1
176
1
 90
4
176
1
 62
7
176
1
 62
257
176
1
 90
1
176
1
 90
1
176
1
 40
1.0
176
1
 90
8
176
1
 62
7
176
1
 40
1.0
176
1
 90
1
176
1
 90
6
176
1
 90
2
176
1
 62
7
176
1
 90
5
176
1
 90
0
176
1
 90
0
176
1
290
0
176
1
 90
1
176
1
 40
0.0
176
1
 90
0
176
1
290
0
176
1
290
1
176
1
290
1
176
1
290
0
176
1
290
0
176
1
290
0
176
1
290
0
176
1
290
0
176
1
290
0
176
1
 90
50
176
1
 40
0.0
176
1
 40
1.0
176
1
 90
0
176
1
 62
18
420
0
176
1
 90
50
176
1
 90
3
176
1
 62
5
420
255
176
1
290
0
176
1
 90
50
176
1
 90
50
176
1
 90
50
176
1
290
0
176
1
 90
50
176
1
 62
256
176
0
 40
1.0
176
0
 90
2
176
1
  1
strokes_ogs.tif
176
1
290
0
176
1
 40
1.0
176
1
 40
1.0
176
1
  0
VISUALSTYLE
  5
6F
102
{ACAD_REACTORS
330
16
102
}
330
16
100
AcDbVisualStyle
  2
Sketchy
 70
24
177
3
291
0
 70
58
 90
2
176
1
 90
2
176
1
 90
0
176
1
 90
1
176
1
 40
0.6
176
1
 40
30.0
176
1
 62
7
420
16777215
176
1
 90
1
176
1
 90
4
176
1
 62
7
176
1
 62
257
176
1
 90
1
176
1
 90
1
176
1
 40
1.0
176
1
 90
8
176
1
 62
7
176
1
 40
1.0
176
1
 90
1
176
1
 90
6
176
1
 90
2
176
1
 62
7
176
1
 90
5
176
1
 90
0
176
1
 90
0
176
1
290
0
176
1
 90
1
176
1
 40
0.0
176
1
 90
0
176
1
290
0
176
1
290
1
176
1
290
1
176
1
290
0
176
1
290
0
176
1
290
0
176
1
290
0
176
1
290
0
176
1
290
0
176
1
 90
50
176
1
 40
0.0
176
1
 40
1.0
176
1
 90
0
176
1
 62
18
420
0
176
1
 90
50
176
1
 90
3
176
1
 62
5
420
255
176
1
290
0
176
1
 90
50
176
1
 90
50
176
1
 90
50
176
1
290
0
176
1
 90
50
176
1
 62
256
176
0
 40
1.0
176
0
 90
2
176
1
  1
strokes_ogs.tif
176
1
290
0
176
1
 40
1.0
176
1
 40
1.0
176
1
  0
VISUALSTYLE
  5
70
102
{ACAD_REACTORS
330
16
102
}
330
16
100
AcDbVisualStyle
  2
Thicken
 70
13
177
3
291
1
 70
58
 90
2
176
1
 90
2
176
1
 90
0
176
1
 90
2
176
1
 40
0.6
176
1
 40
30.0
176
1
 62
7
420
16777215
176
1
 90
1
176
1
 90
4
176
1
 62
7
176
1
 62
257
176
1
 90
1
176
1
 90
1
176
1
 40
1.0
176
1
 90
8
176
1
 62
7
176
1
 40
1.0
176
1
 90
1
176
1
 90
6
176
1
 90
2
176
1
 62
7
176
1
 90
5
176
1
 90
0
176
1
 90
0
176
1
290
0
176
1
 90
1
176
1
 40
0.0
176
1
 90
0
176
1
290
0
176
1
290
1
176
1
290
1
176
1
290
0
176
1
290
0
176
1
290
0
176
1
290
0
176
1
290
0
176
1
290
0
176
1
 90
50
176
1
 40
0.0
176
1
 40
1.0
176
1
 90
0
176
1
 62
18
420
0
176
1
 90
50
176
1
 90
3
176
1
 62
5
420
255
176
1
290
0
176
1
 90
50
176
1
 90
50
176
1
 90
50
176
1
290
0
176
1
 90
50
176
1
 62
256
176
0
 40
1.0
176
0
 90
2
176
1
  1
strokes_ogs.tif
176
1
290
0
176
1
 40
1.0
176
1
 40
1.0
176
1
  0
VISUALSTYLE
  5
71
102
{ACAD_REACTORS
330
16
102
}
330
16
100
AcDbVisualStyle
  2
Wireframe
 70
5
177
3
291
0
 70
58
 90
2
176
1
 90
2
176
1
 90
0
176
1
 90
0
176
1
 40
0.6
176
1
 40
30.0
176
1
 62
7
420
16777215
176
1
 90
1
176
1
 90
4
176
1
 62
7
176
1
 62
257
176
1
 90
1
176
1
 90
1
176
1
 40
1.0
176
1
 90
8
176
1
 62
7
176
1
 40
1.0
176
1
 90
1
176
1
 90
6
176
1
 90
2
176
1
 62
7
176
1
 90
5
176
1
 90
0
176
1
 90
0
176
1
290
0
176
1
 90
1
176
1
 40
0.0
176
1
 90
0
176
1
290
0
176
1
290
1
176
1
290
1
176
1
290
0
176
1
290
0
176
1
290
0
176
1
290
0
176
1
290
0
176
1
290
0
176
1
 90
50
176
1
 40
0.0
176
1
 40
1.0
176
1
 90
0
176
1
 62
18
420
0
176
1
 90
50
176
1
 90
3
176
1
 62
5
420
255
176
1
290
0
176
1
 90
50
176
1
 90
50
176
1
 90
50
176
1
290
0
176
1
 90
50
176
1
 62
256
176
0
 40
1.0
176
0
 90
2
176
1
  1
strokes_ogs.tif
176
1
290
0
176
1
 40
1.0
176
1
 40
1.0
176
1
  0
VISUALSTYLE
  5
72
102
{ACAD_REACTORS
330
16
102
}
330
16
100
AcDbVisualStyle
  2
X-Ray
 70
25
177
3
291
0
 70
58
 90
2
176
1
 90
2
176
1
 90
0
176
1
 90
2
176
1
 40
0.5
176
1
 40
30.0
176
1
 62
7
420
16777215
176
1
 90
1
176
1
 90
4
176
1
 62
7
176
1
 62
257
176
1
 90
1
176
1
 90
1
176
1
 40
1.0
176
1
 90
8
176
1
 62
7
176
1
 40
1.0
176
1
 90
1
176
1
 90
6
176
1
 90
2
176
1
 62
7
176
1
 90
5
176
1
 90
0
176
1
 90
0
176
1
290
0
176
1
 90
1
176
1
 40
0.0
176
1
 90
0
176
1
290
0
176
1
290
1
176
1
290
1
176
1
290
0
176
1
290
0
176
1
290
0
176
1
290
0
176
1
290
0
176
1
290
0
176
1
 90
50
176
1
 40
0.0
176
1
 40
1.0
176
1
 90
0
176
1
 62
18
420
0
176
1
 90
50
176
1
 90
3
176
1
 62
5
420
255
176
1
290
0
176
1
 90
50
176
1
 90
50
176
1
 90
50
176
1
290
0
176
1
 90
50
176
1
 62
256
176
0
 40
1.0
176
0
 90
2
176
1
  1
strokes_ogs.tif
176
1
290
0
176
1
 40
1.0
176
1
 40
1.0
176
1
  0
DICTIONARYVAR
  5
21A
330
2D
100
DictionaryVariables
280
0
  1
1.4.2 @ 2026-05-06T13:55:53.235284+00:00
  0
ENDSEC
  0
EOF
